<svg viewBox="0 0 500 200" xmlns="http://www.w3.org/2000/svg"><g fill="#f68b1f"><path d="m220.05 123.61v-54.81h-6.64v-1.74h41.78v18.82h-1.62q0-8.28-2.71-12.27-3.26-4.8-10.62-4.81h-11.24v54.81h7.42v1.74h-23v-1.74z"/><path d="m258.45 67.06h23v1.74h-7.18l17 37.53 10.79-28.5a15.06 15.06 0 0 0 1.18-5.3c0-2.48-1.93-3.73-5.79-3.73v-1.74h14.83v1.74c-2.12 0-3.65.43-4.6 1.29a12.42 12.42 0 0 0 -2.74 4.6l-14.6 38q-5.25 13.68-13 13.68a12 12 0 0 1 -7.72-2.74 9.44 9.44 0 0 1 -3.71-7.54c0-3.6 1.73-5.39 5.18-5.39q3.78 0 3.78 4.5a5 5 0 0 1 -1.46 3.29 4.65 4.65 0 0 0 -1.47 2.88 3.33 3.33 0 0 0 1.39 2.17 5.07 5.07 0 0 0 3.55 1.25q5.25 0 9.34-7.64l-21.82-48.35h-5.95z"/><path d="m335.74 123.61v-54.81q-18.3 0-18.3 16.67h-1.63v-18.41h49v18.41h-1.63q0-16.66-18.22-16.67v54.81h7.26v1.74h-23.74v-1.74z"/><path d="m424.82 150c11.45-12.89 19.18-33.46 19.18-49.23 0-10.77-3.13-30.22-19.18-50.77l-2.05 1c9.51 16.33 10.94 30.44 10.94 49.77 0 3.89.21 32.46-10.73 48z"/><path d="m398.82 142.19c9.66-10.88 16.18-28.19 16.18-41.54 0-9.09-2.68-25.5-16.22-42.84l-1.72.85c8 13.78 9.23 25.68 9.23 42 0 3.28.17 27.38-9.06 40.51z"/><path d="m376.15 134.37c7.87-8.85 13.21-23 13.21-33.84 0-7.41-2.18-20.78-13.21-34.9l-1.41.68c6.54 11.23 7.52 20.93 7.52 34.22 0 2.67.14 22.31-7.38 33z"/></g><path d="m97.36 106h1.54l-.77 19.4h-1.54q.07-3.55-3.09-3.56-.85 0-5.18 2.28a19.56 19.56 0 0 1 -9.26 2.28 20 20 0 0 1 -12.67-4.56 26.93 26.93 0 0 1 -8.39-11.33q-2-5-2-13.35a40.2 40.2 0 0 1 2.17-13.85 27.68 27.68 0 0 1 8.83-12.52 21.71 21.71 0 0 1 13.74-4.64 16.5 16.5 0 0 1 6.88 1.37 12.46 12.46 0 0 0 4.48 1.37 3.38 3.38 0 0 0 3.63-2.74h1.62v18.9h-.77q-1.71-17.33-15.3-17.32a13.71 13.71 0 0 0 -5.28 1.08q-9.81 4-9.8 21.62v14.57a26.57 26.57 0 0 0 2.31 11.56 13.37 13.37 0 0 0 8.11 7.4 14.83 14.83 0 0 0 4.48.83q6.72 0 11.2-6a30.14 30.14 0 0 0 5.06-12.79z" fill="#4d4d4f"/><path d="m119.2 68.8v54.81h6v1.74h-21.6v-1.74h6.64v-54.81h-6.64v-1.74h57.07v1.74h-6.67v54.81h6.65v1.74h-21.65v-1.74h5.94v-54.81z" fill="#4d4d4f"/><path d="m196 61.09h.85q0 7.38-2.7 11.11-2.94 3.9-9.58 4.81-7.64 1-11.12 2.57a16.06 16.06 0 0 0 -8 8.29 21.14 21.14 0 0 0 -1.7 9.12v1.41h1.32q5.55-11.94 15.52-11.94 8.49 0 13.4 5.39t4.9 14.51q0 8.79-5.06 14.39a17 17 0 0 1 -13.24 5.6 17.92 17.92 0 0 1 -5.72-1.08q-7-2.4-10.42-12.27a43 43 0 0 1 -1.85-13.77q0-19.56 6.71-26.36a12.89 12.89 0 0 1 7.69-3.57q8.49-1.15 9.73-1.49 6.87-1.41 8.41-3.82a5.23 5.23 0 0 0 .86-2.9zm-24.32 39v11c0 4.47.46 7.66 1.39 9.59q2 4.14 7.68 4.14 5.5 0 7.6-4.71 1.55-3.32 1.55-9.85v-10.26a14.91 14.91 0 0 0 -2.09-8.36 8.19 8.19 0 0 0 -9.81-3.02q-6.29 2.38-6.29 11.38z" fill="#4d4d4f"/><path d="m0 0h500v200h-500z" fill="none"/></svg>