<svg width="1304" height="1323" viewBox="0 0 1304 1323" fill="none" xmlns="http://www.w3.org/2000/svg">
<path fill-rule="evenodd" clip-rule="evenodd" d="M514 1158.93H273.251C257.109 1158.93 244.024 1145.74 244.024 1129.48V692.832C244.024 668.013 255.452 644.599 274.961 629.446L652.139 336.496L1029.32 629.446C1048.83 644.599 1060.25 668.013 1060.25 692.832V1129.48C1060.25 1145.74 1047.17 1158.93 1031.03 1158.93H803V712H514V1158.93ZM1097.54 634.643C1105.31 640.714 1114.5 643.654 1123.63 643.654C1136.35 643.654 1148.93 637.938 1157.33 627.026C1171.76 608.284 1168.37 581.309 1149.77 566.775L1017.49 463.411L1017.45 185.323C1017.45 172.993 1007.53 163 995.289 163H898.254C886.017 163 876.096 172.996 876.096 185.327V352.919L703.648 218.166L703.164 217.793C688.551 206.708 670.429 200.603 652.138 200.603C633.847 200.603 615.725 206.708 601.112 217.793L600.868 217.978L154.503 566.775C135.903 581.309 132.518 608.285 146.943 627.026C161.368 645.767 188.139 649.178 206.739 634.643L652.138 286.601L1097.54 634.643Z" fill="#0F112C"/>
</svg>
