<svg id="Слой_1" data-name="Слой 1" xmlns="http://www.w3.org/2000/svg" viewBox="0 0 127.9297 113.3867"><defs><style>.cls-1{fill:#2a3f92;}</style></defs><title>ipm-logo</title><g id="surface1"><path class="cls-1" d="M204.3672,155.3711a7.8406,7.8406,0,0,0,3.3438-2.9453,7.79,7.79,0,0,0-4.0977-.5117c1.0156-1.168,2.1836-4.98,2.1836-4.98s-11.2812,7.918-15.5586,10.0313c-6.7656,3.3438-3.043,3.9375-2.9766,6.0977,0.0586,2.1523-1.4258,1.52-1.4258,1.52a8.5607,8.5607,0,0,0-2.27-4.02,0.2963,0.2963,0,0,1-.09-0.2617c0.4766-2.7891.32-5.0117,1.9414-6.0664a1.2976,1.2976,0,0,1,1.2109-.32c1.41,0.3828,2.4492.73,1.8945,1.7773-0.41.7969,0.707,0.1914,0.707,0.1914,2.1563-2.3477-.2578-3.3633,0-4.3164,0.3672-1.3828-3.5625-3.6172-6.8008-1.2031s-3.5273,7.6719-3.5508,8.082a3.7217,3.7217,0,0,0-.5156-0.043,3.66,3.66,0,0,0-.5078.043c-0.0156-.418-0.3125-5.6719-3.5508-8.082-3.2383-2.4141-7.1641-.18-6.793,1.2031,0.2539,0.9531-2.1641,1.9688,0,4.3164,0,0,1.1094.6055,0.6953-.1914-0.5391-1.0469.4883-1.3945,1.9023-1.7773a1.3,1.3,0,0,1,1.2109.32c1.6172,1.0547,1.4688,3.2734,1.9375,6.0586a0.3106,0.3106,0,0,1-.0937.2734,8.5643,8.5643,0,0,0-2.2617,4.0156s-1.4883.6328-1.4219-1.52c0.0586-2.16,3.77-2.625-2.9883-6.0977-4.2344-2.18-15.5547-10.0312-15.5547-10.0312s1.168,3.8125,2.18,4.9766a7.7959,7.7959,0,0,0-4.09.5156,7.8406,7.8406,0,0,0,3.3438,2.9453c0.0117,0.0352-.0156-0.0859,0,0a8.5167,8.5167,0,0,0-4.2422,1.32,8.3334,8.3334,0,0,0,4.3086,2.2422c0,0.1563-.0039-0.16,0,0a8.3693,8.3693,0,0,0-3.9141,2,7.6181,7.6181,0,0,0,4.3672,1.57c0.043,0.2031-.0391-0.1992,0,0a7.7372,7.7372,0,0,0-3.3164,2.3906,7.32,7.32,0,0,0,4.4531,1.1328c0.0625,0.1641-.0664-0.1484,0,0a6.6859,6.6859,0,0,0-2.5937,2.5234,7.1217,7.1217,0,0,0,4.3008.5391c0.082,0.18-.0781-0.1758,0,0a5.77,5.77,0,0,0-1.8906,2.543,7.7969,7.7969,0,0,0,4.5547.0625h0a5.4945,5.4945,0,0,0-1.7852,2.4609,8.8561,8.8561,0,0,0,5.18-.2734c0.125,0.168-.1211-0.1641,0,0a4.228,4.228,0,0,0-.9648,2.1719,8.7248,8.7248,0,0,0,5.0508-.9336h0a4.05,4.05,0,0,0-.5937,2.2188,8.5135,8.5135,0,0,0,4.1367-1.5664c0.0625,0.3242.32,1.5234,1.1992,1.6328-0.6367.5078-3.0156,0.6563-1.9375,2.7852l-3.5664,3s-0.6016-.7227-2.0469.2461l-4.4961-4.1211a0.7239,0.7239,0,0,0-.1484-0.7422,0.8751,0.8751,0,0,0-.9766-0.082l-2.1758-1.9531a0.3177,0.3177,0,0,1-.082-0.3086,0.895,0.895,0,0,0-.2578-0.8281,0.99,0.99,0,0,0-.6836-0.2734c-0.0234-.0039-0.043-0.0156-0.0742-0.0234a1.2856,1.2856,0,0,0-.5-1.27,0.87,0.87,0,0,0-.4062.84l-0.6875-.6992a0.1832,0.1832,0,0,0-.2266.0664l-0.1133.1055a0.1708,0.1708,0,0,0-.0625.2266l0.73,0.66a0.9066,0.9066,0,0,0-.8789.3906,1.3763,1.3763,0,0,0,1.3242.4922c0.0078,0.0156.0078,0.0313,0.0156,0.0508a0.9129,0.9129,0,0,0,.2813.6719,0.9724,0.9724,0,0,0,.8555.2539,0.311,0.311,0,0,1,.2891.0781l2.0547,2.1055a0.7827,0.7827,0,0,0,.0859.9375,0.7666,0.7666,0,0,0,.7031.16l4.2656,4.3047c-0.7773.9414-.7656,1.7109,0.3555,1.1641,0,0-.8672,1.4961.8984,0.7773-0.8242,1.0234.16,1.27,0.57,0.9922a3.8742,3.8742,0,0,0,.7031-0.3906l0.7461,0.7539a0.5336,0.5336,0,0,0,.6211.02l0.6992,0.7148a0.6254,0.6254,0,0,0,.1328.6094,0.8085,0.8085,0,0,0,1.0977-.1133,0.7479,0.7479,0,0,0,.1211-1.0586,0.6638,0.6638,0,0,0-.6367-0.1289v-0.0039l-0.7461-.6758a0.4768,0.4768,0,0,0-.0156-0.5977l-0.66-.6133c0.0859-.0781.1484-0.1367,0.1484-0.1367s0.8945-.9375,0-1.4609a40.0386,40.0386,0,0,0,4.2383-2.6055s1.5859,1.3359,3.2344-1.2109c0.8242-.8867.9492,0.3242,0.9492,0.3242l1.1367,3.6953a8.785,8.785,0,0,0-1.7891,2.3711,7.4352,7.4352,0,0,0-.7383,4.0039,4.4458,4.4458,0,0,0,2.07-1.4492,5.4969,5.4969,0,0,0,.0859,3.0469,4.7665,4.7665,0,0,0,1.9727-1.8633,5.159,5.159,0,0,0,1.1836,2.6367,5.6439,5.6439,0,0,0,1.1992-2.9141,5.4614,5.4614,0,0,0,2.125,2.1406,5.4969,5.4969,0,0,0,.0859-3.0469,4.4268,4.4268,0,0,0,2.07,1.4492,7.4352,7.4352,0,0,0-.7383-4.0039,8.6282,8.6282,0,0,0-1.7891-2.3711l1.1328-3.6953s0.1289-1.2109.9531-.3242c1.6484,2.5469,3.2344,1.2109,3.2344,1.2109s3.6563,2.2383,4.793,2.7461a0.286,0.286,0,0,1,.168.2461c0.0508,0.6016.6172,1.6758,2.4258,1.8516,2.0977,0.2148,3.2031-1.6289,2.3789-1.6094-0.125.0039-.0664,0.09,0.02,0.293a0.9353,0.9353,0,0,0-.0352-0.2461,2.3688,2.3688,0,0,0-1.0625-4.2656v-0.7969h0.5273a0.2975,0.2975,0,0,0,.2773-0.32,0.305,0.305,0,0,0-.2773-0.3281h-0.5273v-0.543a0.3309,0.3309,0,0,0-.332-0.3281,0.3268,0.3268,0,0,0-.3242.3281v0.543h-0.543a0.3028,0.3028,0,0,0-.2812.3281,0.2955,0.2955,0,0,0,.2813.32h0.543v0.7969a2.37,2.37,0,0,0-2.0625,2.3477c0,0.125.02,0.2461,0.0313,0.3672-0.3633-.2812-0.5234-0.1055-0.5234-0.1055l-4.1094-3.16c1.1367-2.0625-1.1758-2.2773-1.8086-2.7852,0.8828-.1094,1.1367-1.3086,1.1914-1.6328a8.5613,8.5613,0,0,0,4.1484,1.5664,4.1486,4.1486,0,0,0-.6094-2.2344c0.168-.0391-0.18.043,0,0a9.8384,9.8384,0,0,0,5.07.9492,4.5146,4.5146,0,0,0-1.0586-2.2656c0.1289-.0586-0.1367.0664,0,0a9.9365,9.9365,0,0,0,5.2617.3672,5.4319,5.4319,0,0,0-1.7812-2.4609h0a7.82,7.82,0,0,0,4.5586-.0625,5.9655,5.9655,0,0,0-1.9648-2.59c0.0664-.0859-0.0664.0938,0,0a7.5972,7.5972,0,0,0,4.3711-.4922,6.72,6.72,0,0,0-2.5937-2.5234c0.07-.1484-0.0625.1641,0,0a7.3476,7.3476,0,0,0,4.457-1.1328,7.82,7.82,0,0,0-3.3281-2.3906c0.0273-.1172-0.02.1172,0,0a7.69,7.69,0,0,0,4.3789-1.57,8.4071,8.4071,0,0,0-3.9141-2h0a8.3326,8.3326,0,0,0,4.3047-2.2422,8.5356,8.5356,0,0,0-4.2422-1.32m-28.4492-7.1328v1.4453H180.68v-1.4609a4.5934,4.5934,0,0,0,.57-0.5937c1.0625-1.3633,1.1445-3.09.1758-3.8437a2.1666,2.1666,0,0,0-2.3281-.0273v-1.0039a0.286,0.286,0,0,0-.293-0.2852h-0.168v-0.9023h0.6914a0.3262,0.3262,0,0,0,0-.6523h-0.6914v-0.8359a0.34,0.34,0,1,0-.68,0v0.8359H177.27a0.3262,0.3262,0,1,0,0,.6523h0.6875v0.9023h-0.1758a0.2842,0.2842,0,0,0-.2852.2852v1.02a2.1706,2.1706,0,0,0-2.3477.0117c-0.9687.7539-.8906,2.48,0.18,3.8438a4.1659,4.1659,0,0,0,.59.6094M167.43,220.4375l-0.0391.3359,2.1172,0.1758-0.4844,6.1875,1.4023,0.1172,0.3516,0.0273,0.4883-6.1953,1.7813,0.1523,0.3125,0.0117,0.0508-.3008,0.207-.8828,0.082-.3945-6.1836-.5Zm-8.9062-1.9023a1.241,1.241,0,0,0-.2266-0.75,2.1994,2.1994,0,0,0-1.3906-.66l-0.82-.1953-0.6133,2.9648,1.1563,0.2461a3.3888,3.3888,0,0,0,.5938.07,1.1481,1.1481,0,0,0,.6406-0.1953,1.3574,1.3574,0,0,0,.59-0.9961,2.1474,2.1474,0,0,0,.07-0.4844m1.84,0.7031a3.0108,3.0108,0,0,1-1.4258,2.1836,2.908,2.908,0,0,1-1.543.4141,4.5188,4.5188,0,0,1-1.02-.125l-1.2344-.2656-0.7617,3.57-0.34-.0781-1.43-.3008,2.0742-9.6445,0.34,0.07,2.5117,0.5469a3.6689,3.6689,0,0,1,2.0547.918,2.7318,2.7318,0,0,1,.8555,2.02,3.5306,3.5306,0,0,1-.082.6914m-0.0625,6.8086,5.1953,0.7422,0.1914-1.2852,0.043-.3516-3.4219-.4766,0.23-1.6133,2.2813,0.332,0.3594,0.0547,0.1758-1.2539,0.043-.3437-2.6289-.3672,0.1758-1.34,2.8164,0.4219,0.2891,0.0117,0.3633-1.1523,0.1133-.3828-5.1172-.7266Zm-13.3477-5.41a0.7256,0.7256,0,0,0-.3555-0.07,1.2016,1.2016,0,0,0-1.1719.8789,1.1,1.1,0,0,0-.0664.3867,1.2551,1.2551,0,0,0,.8906,1.1875h0.0117a0.8439,0.8439,0,0,0,.3359.0586,1.2958,1.2958,0,0,0,1.1992-.8984,1.8646,1.8646,0,0,0,.0547-0.3633,1.2318,1.2318,0,0,0-.8984-1.18m17.82-12.8867h-0.207v1.6406H169.34V207.75h-1.27v-7.8711h-1.2812l-3.043,2.07,0.457,0.9766,0.0664,0.18,0.1836-.07a6.51,6.51,0,0,0,1.07-.4687,5.1432,5.1432,0,0,0,.6367-0.34V207.75h-1.3867Zm12.6211-6.0937,0.3281-1.4609,0.0469-.2539h-6.2539l-0.3867,1.4961-0.0586.2578h3.8984c0.1406,0,.2852-0.0039.418-0.0039a15.7439,15.7439,0,0,0-1.5586,2.4688,23.19,23.19,0,0,0-2.1133,5.543l-0.082.3242,2.0664-.5156,0.1445-.0391,0.0234-.1328a13.0806,13.0806,0,0,1,1.23-3.7578,37.0288,37.0288,0,0,1,2.2969-3.9258m-32.7031-74.43c0.875-.3086,1.7422-0.6367,2.6211-0.9609a1.5168,1.5168,0,0,0-1.2773-1.1289,1.5326,1.5326,0,0,0-.5156.0977,1.2756,1.2756,0,0,0-.9062,1.3438,3.5458,3.5458,0,0,0,.0781.6484m6.3164,3.4219a8.49,8.49,0,0,1-2.293,1.34,4.6574,4.6574,0,0,1-1.5859.293,4.1418,4.1418,0,0,1-1.8437-.4414,4.8148,4.8148,0,0,1-2.332-2.7148,5.792,5.792,0,0,1-.375-1.9844,3.9724,3.9724,0,0,1,.2461-1.4375,3.6492,3.6492,0,0,1,3.3438-2.418,2.9769,2.9769,0,0,1,1.5977.48,5.48,5.48,0,0,1,1.9531,2.7109c0.0469,0.1445.0938,0.2852,0.1367,0.4063l0.1289,0.3438-0.3281.1094c-1.4492.5313-2.9219,1.0742-4.3711,1.6055a2.391,2.391,0,0,0,2.07,1.4258,2.8427,2.8427,0,0,0,.9766-0.1758,6.1369,6.1369,0,0,0,1.82-1.1836l0.3789-.32,0.6836,1.8008Zm42.3672,75.5625v-0.2148h-1.0625v-3.98l-1.4492.3672-0.1211.0352-0.1914,2.1055c-0.0508.5313-.0664,1.0508-0.0664,1.3906v0.082h-1.9375c0.1328-.2148.2852-0.5078,0.41-0.7617l2.4648-5.3789h-2.0312l-2.9727,6.4531-0.0547,1.1523v0.2109h4.1055v2.2266l1.68-.3008,0.1641-.0273v-1.6055c0-.1094-0.0117-0.2148-0.0117-0.293h1.0742v-1.4609Zm41.5859-71.1016-0.3164-.1875c-0.3828-.2852-0.7852-0.5469-1.207-0.8281L233.18,133.91l-0.2109.2617c-1.5977,2.2344-3.2422,4.4531-4.8555,6.6875l-0.2187.27,0.2891,0.207c0.4219,0.2852.8008,0.5508,1.23,0.8281l0.2773,0.1875,0.1914-.2617c1.6328-2.2344,3.2422-4.4453,4.8828-6.6875Zm-8.5273.3945a0.75,0.75,0,0,1-.1133-0.07,3.3754,3.3754,0,0,0-1.6992-.5391h-0.0586a1.1218,1.1218,0,0,0-1.0039.5078,0.9493,0.9493,0,0,0-.1211.4648,0.7463,0.7463,0,0,0,.0234.2227,0.8009,0.8009,0,0,0,.4336.5664,2.3356,2.3356,0,0,0,1.1563.2578,2.8019,2.8019,0,0,0,.5234-0.0352c0.2891-.4609.5781-0.9258,0.8594-1.375m1.4922,3.5938-0.1562.332c-0.0977.25-.2266,0.5039-0.3516,0.7578l-0.082.2188-0.2383-.0078A2.8213,2.8213,0,0,1,225.8633,140a1.49,1.49,0,0,1-.7969-1.3164c0-.0742.0117-0.1641,0.0117-0.2461a5.7793,5.7793,0,0,1-.8086.0547,3.386,3.386,0,0,1-1.7422-.418,2.4857,2.4857,0,0,1-1.25-1.57,2.6984,2.6984,0,0,1-.1133-0.6484,2.5368,2.5368,0,0,1,.4258-1.3477,2.7042,2.7042,0,0,1,2.2773-1.3633,0.54,0.54,0,0,1,.1953-0.0039,6.492,6.492,0,0,1,3.1758,1.0234s0.0039,0,.0039.0078a4.8654,4.8654,0,0,1,.3477-0.5547,1.5492,1.5492,0,0,0,.2227-0.6719,0.91,0.91,0,0,0-.6289-0.7891,4.9139,4.9139,0,0,0-2.3477-.5977l-0.625-.0156,0.3242-.5078c0.23-.3477.43-0.6875,0.6563-1.043l0.1133-.2109,0.2461,0.0352a7.7536,7.7536,0,0,1,2.8008.91,3.0979,3.0979,0,0,1,1.5781,1.7266,2.7639,2.7639,0,0,1-.4766,2.25c-0.6758,1.0508-1.2852,2.1133-1.9492,3.1875a1.5122,1.5122,0,0,0-.2734.7266,0.2605,0.2605,0,0,0,.1055.2539,0.9256,0.9256,0,0,1,.2539.0859Zm-7.9414,75.0977,0.8047,1.1172,0.1563,0.2109,1.3594-.625,0.5859,1.2344a1.8111,1.8111,0,0,1-.6406.418,2.7273,2.7273,0,0,1-1.168.2891,2.1324,2.1324,0,0,1-.3516-0.0469,2.4429,2.4429,0,0,1-1.4414-1.5117,3.52,3.52,0,0,1-.4219-1.5469,1.181,1.181,0,0,1,.0781-0.5352,1.6923,1.6923,0,0,1,1.02-.9336,2.2391,2.2391,0,0,1,.75-0.2422c0.0977,0,.1758-0.0117.2656-0.0117a3.5322,3.5322,0,0,1,.5938.0469l0.3008,0.07,0.2773-1.1914,0.0742-.332-0.3516-.0781a4.2154,4.2154,0,0,0-.8672-0.0977c-0.1172,0-.2109,0-0.3516.0117a4.1862,4.1862,0,0,0-1.3984.3828,3.7748,3.7748,0,0,0-1.9922,1.9688,4.0086,4.0086,0,0,0-.23,1.2266,4.5952,4.5952,0,0,0,.4961,1.9883,4.1973,4.1973,0,0,0,2,2.1367,3.4786,3.4786,0,0,0,1.4492.3086,4.3306,4.3306,0,0,0,1.7852-.4258,4.7207,4.7207,0,0,0,2-1.6172l0.1172-.16-1.6875-3.5391ZM146.168,216.34l0.1328-.2656,0.4336-.8164,0.1953-.3594-5.8242-2.125-0.4258,1.18-0.1172.32,1.9922,0.7461-2.16,5.8125,1.3242,0.4922,0.3281,0.1211,2.1406-5.832,1.6875,0.6367Zm95.7852-74.9375a2.3831,2.3831,0,0,0-.98-1.9336,3.3839,3.3839,0,0,0-2.1953-.7617c-0.1445,0-.2617.0234-0.43,0.0391a3.8133,3.8133,0,0,0,.3555-0.418l0.2344-.2656-0.2539-.2344c-0.4023-.3086-0.7617-0.6055-1.1406-0.9141l-0.25-.2148-0.2109.2578c-1.8477,2.07-3.6445,4.1523-5.5117,6.2031l-0.2539.2813,0.2852,0.2227c0.3945,0.3164.7734,0.6328,1.1484,0.9336l0.2656,0.2148,0.2266-.25c1.125-1.3242,2.3125-2.6367,3.4922-3.9492a4.9154,4.9154,0,0,1,1.3789-.2148,2.0825,2.0825,0,0,1,1.34.3984,0.6349,0.6349,0,0,1,.3164.4922v0.09a2.8935,2.8935,0,0,1-.5781.9258c-1.2187,1.3867-2.4414,2.7539-3.6367,4.1094l-0.2539.2617,0.2852,0.2461c0.3906,0.3164.7734,0.6172,1.1484,0.93l0.2578,0.2109,0.1914-.2539c1.3516-1.4961,2.6719-2.9883,3.9844-4.4883a3.0109,3.0109,0,0,0,.7969-1.918h-0.0117Zm-47.4883,81.2852a3.4586,3.4586,0,0,0-1.6875-.6406l-0.9922-.1406a1.0949,1.0949,0,0,1-1.0781-.5664v-0.0586c0.0352-.207.1211-0.5977,1.0859-0.7422a2.1716,2.1716,0,0,1,.3672-0.02,3.2273,3.2273,0,0,1,1.4492.3438L193.91,221.02l0.5586-1.1641,0.1445-.3047-0.293-.1367a4.4267,4.4267,0,0,0-2.1367-.5039,3.3993,3.3993,0,0,0-.6641.0469,3.6845,3.6845,0,0,0-1.7891.6836,2.3948,2.3948,0,0,0-.8672,1.8164c0,0.082.0156,0.168,0.02,0.2773a1.9882,1.9882,0,0,0,.5313,1.1875,2.8483,2.8483,0,0,0,1.668.7383l1.0664,0.1406c0.7148,0.1055,1.168.2891,1.2266,0.7031v0.0938a0.7673,0.7673,0,0,1-.3437.5547,1.79,1.79,0,0,1-1.0156.332,2.8917,2.8917,0,0,1-.4219.0234,4.7273,4.7273,0,0,1-1.6211-.332l-0.3281-.1406-0.5078,1.207-0.0977.3281,0.3008,0.1406a5.9453,5.9453,0,0,0,2.1641.4141c0.2148,0,.4375-0.0234.68-0.0352a4.1116,4.1116,0,0,0,1.9531-.68,2.4949,2.4949,0,0,0,1.1016-2.0312v-0.2383a2.3968,2.3968,0,0,0-.7734-1.4531m-8.7969-.7969a0.6268,0.6268,0,0,0-.43-0.6094,1.8414,1.8414,0,0,0-.7734-0.1211c-0.07,0-.1445.02-0.2266,0.02l-0.5156.0234,0.0781,1.6484,0.375-.02a2.4445,2.4445,0,0,0,1.2422-.2773,0.7328,0.7328,0,0,0,.25-0.6016v-0.0625Zm2.3711,4.7773,0.5039,0.5508-0.73.0352-1.5586.0664-0.0859-.1953c-0.332-.5469-0.5-0.7227-0.68-0.9922a12.8386,12.8386,0,0,0-1.0156-1.2344,2.3382,2.3382,0,0,0-.59-0.48,0.0144,0.0144,0,0,0-.0117-0.0078l0.1094,3.0156h-0.3477l-1.418.0742-0.34-7.82,0.34-.0078,1.8984-.0781c0.2188-.02.4492-0.0234,0.6523-0.0234a3.001,3.001,0,0,1,1.5977.3438,2.2527,2.2527,0,0,1,1.1406,1.9219s0,0.0352.0039,0.09a2.2227,2.2227,0,0,1-1.0625,1.9453,2.653,2.653,0,0,1-.5937.23c0.0586,0.0391.0742,0.0742,0.1328,0.1094a11.3133,11.3133,0,0,0,.8711,1.0156c0.16,0.2031.3281,0.3867,0.4492,0.5469,0.2734,0.3086.5,0.6133,0.7344,0.8945m-6.2109-17.0234v0.2539l1.6953-.3008,0.1992-.0273-0.09-1.8984H184.73v-1.6758h-1.02c0-.0469.0117-0.082,0.0117-0.1016v-3.8789l-1.4687.3672-0.1484.0352-0.1914,2.1055c-0.0391.5313-.0391,1.0508-0.0391,1.3906v0.082h-1.9375c0.1211-.2148.2852-0.5078,0.4063-0.7617l2.4609-5.3789h-2.0625l-2.9727,6.4531-0.0117,1.1523v0.2109h4.07v1.9727Zm32.6289,6.3047a1.26,1.26,0,0,0-.082-0.3633,0.5761,0.5761,0,0,0-.6289-0.4453h-0.0742a2.1094,2.1094,0,0,0-.8672.2109l-0.4961.1719,0.57,1.5352,0.3633-.1289a2.4977,2.4977,0,0,0,1.0938-.6211,1.2205,1.2205,0,0,0,.1211-0.3594m3.6406,3.4766,0.6016,0.3789-0.6719.2539-1.4609.52-0.16-.1367a11.588,11.588,0,0,0-2.2773-1.6172,3.4769,3.4769,0,0,0-.6836-0.2891h-0.0391l1.0547,2.8359-0.3477.1211-1.3437.4727-2.6953-7.3242,0.3477-.1211,1.8008-.6562a4.8224,4.8224,0,0,1,1.7422-.43,2.2057,2.2057,0,0,1,2.1055,1.5234,2.0191,2.0191,0,0,1,.168.8633,2.1368,2.1368,0,0,1-.5078,1.3984,2.4487,2.4487,0,0,1-.5078.4258,1.4818,1.4818,0,0,0,.1328.07c0.082,0.0586.3008,0.18,1.16,0.7188,0.2188,0.1172.3984,0.2578,0.59,0.3672,0.3516,0.2188.66,0.4258,0.9922,0.625m-17.3125,3.7188a1.2276,1.2276,0,0,0-.0117-0.2031,0.7411,0.7411,0,0,0-.8828-0.6406,4.32,4.32,0,0,0-.6445.0781h-0.0352l-0.9766.1875,0.3047,1.6367,1-.207c0.6914-.125,1.2891-0.3633,1.2461-0.8516m-2.84-2.1367,0.9531-.1875c0.6406-.1328.9883-0.3125,0.9531-0.68a0.8161,0.8161,0,0,0-.02-0.18,0.607,0.607,0,0,0-.73-0.5078,3.1021,3.1021,0,0,0-.5625.0508l-0.8477.168Zm4.6641,1.6719a0.9621,0.9621,0,0,1,.0586.3711,2.3321,2.3321,0,0,1-1.1719,2.0039h-0.0078a4.7721,4.7721,0,0,1-1.7148.5352l-2.6719.4961L195.66,218.41l0.34-.0469,1.9453-.3828a8.3547,8.3547,0,0,1,1.4375-.207,1.3954,1.3954,0,0,1,.34.0391,2.14,2.14,0,0,1,1.9336,1.6406,2.5162,2.5162,0,0,1,.0117.3047,1.852,1.852,0,0,1-.5078,1.293,2.0926,2.0926,0,0,1,1.4492,1.6289m-23.1836-1.2617h0.3008l0.2109-1.1914,0.0742-.41-5.18-.0977-0.1562,7.8242,0.3438,0.0117,4.9023,0.09,0.0352-1.3047v-0.3477l-3.4648-.0781,0.0352-1.6055,2.3164,0.043,0.3555,0.02,0.0156-1.2617,0.0039-.3594-2.6562-.0586,0.02-1.32Zm29.2734-6.0937-1.4023.3867-0.34.09,1.32,4.7188a4.1177,4.1177,0,0,1,.1211.7539,1.1246,1.1246,0,0,1-.0391.32,1.4048,1.4048,0,0,1-.93.6133,2.141,2.141,0,0,1-.5586.082,0.9392,0.9392,0,0,1-.793-0.3242,7.7866,7.7866,0,0,1-.3437-1.0312l-1.2422-4.4531-1.3789.3906-0.3437.082,1.2891,4.6875a3.996,3.996,0,0,0,.7148,1.52,2.4316,2.4316,0,0,0,1.8789.7969,5.4835,5.4835,0,0,0,1.2813-.1914,3.2819,3.2819,0,0,0,1.9492-1.3047,2.25,2.25,0,0,0,.332-1.1328,5.5355,5.5355,0,0,0-.2266-1.3125Zm-26.5547-94.9766c0.0859,0.0039.1992,0.0039,0.2773,0.0117h0.1953a2.589,2.589,0,0,0,1.7148-.4844,1.984,1.984,0,0,0,.707-1.4883c-0.0078-.07,0-0.1367-0.0078-0.1758a1.226,1.226,0,0,0-.3828-1.0234,3.1067,3.1067,0,0,0-1.7578-.4531c-0.1914,0-.3828-0.0078-0.59-0.0117-0.0391,1.1992-.1055,2.4141-0.1562,3.625m-2.1641,6.2109-0.3477-.0117,0.0234-.3594c0.1875-3.6914.3477-7.3906,0.5273-11.09l0.0039-.34,0.3516,0.0117q1.4707,0.07,2.93.1289a4.7538,4.7538,0,0,1,2.9688.8594,2.901,2.901,0,0,1,.918,2.34v0.2188a3.7569,3.7569,0,0,1-1.4336,2.98,4.9583,4.9583,0,0,1-3.1523.9688,1.7353,1.7353,0,0,1-.3516-0.0234c-0.1211-.0078-0.2344-0.0078-0.34-0.0078-0.0781,1.3477-.1172,2.7031-0.2031,4.0586v0.3594l-0.3437-.0273c-0.5156-.0273-1.0312-0.043-1.5508-0.0664m-9.07.0234,0.0313,0.3477,0.3438-.02c0.4844-.0391.9766-0.0742,1.4375-0.1094l0.3672-.0352-0.0273-.3477q-0.4746-5.9-.9258-11.8125l-0.0312-.3477-0.3359.0313c-0.4844.02-.9531,0.0625-1.43,0.1055l-0.3594.02,0.0352,0.3555q0.4395,5.9121.8945,11.8125m32.02,0.3281a4.3607,4.3607,0,0,0,.3477,1.7969,3.82,3.82,0,0,0,2.4375,2.1523,8.471,8.471,0,0,0,2.4531.2969h0.1094l0.27,0.0078,0.0742-.2539c0.1367-.4062.27-0.8086,0.4063-1.2266l0.1563-.5312-0.57.1055a6.2553,6.2553,0,0,1-.8437.0586,4.0214,4.0214,0,0,1-1.1172-.16,1.8011,1.8011,0,0,1-1.2539-1.1289,2.2837,2.2837,0,0,1-.1914-0.9609,3.6991,3.6991,0,0,1,.1914-1.1328,3.2672,3.2672,0,0,1,1.1914-1.8008,1.9081,1.9081,0,0,1,1.07-.34,2.862,2.862,0,0,1,.5977.0859,7.4877,7.4877,0,0,1,1.73.8945l0.375,0.2539,0.1445-.4336c0.125-.3945.2227-0.8008,0.3633-1.1953l0.07-.2812-0.2266-.1211a10.6507,10.6507,0,0,0-2.0156-.875,4.9434,4.9434,0,0,0-1.5234-.2461,3.5358,3.5358,0,0,0-1.8633.48,4.65,4.65,0,0,0-2.1211,2.8359,6.1047,6.1047,0,0,0-.2617,1.7188M141.1641,211.625l-0.168-.2891a5.0442,5.0442,0,0,0-2.2969-2.0781,3.616,3.616,0,0,0-1.59-.3906,2.9236,2.9236,0,0,0-.7617.0977,2.8783,2.8783,0,0,0-1.8984,1.6055,2.5556,2.5556,0,0,0-.2422,1.0625,2.5112,2.5112,0,0,0,.1367.7969,3.87,3.87,0,0,0,1.2422,1.5469l0.7109,0.6445a2.24,2.24,0,0,1,.7266.957,1.1768,1.1768,0,0,1,.0664.3711,1.2587,1.2587,0,0,1-.9961,1.2227,2.7417,2.7417,0,0,1-.2969.0313,2.0386,2.0386,0,0,1-.918-0.25,3.6664,3.6664,0,0,1-1.793-1.6016l-0.1914-.3594-1.1016.8086-0.27.1953,0.1719,0.2773a5.6488,5.6488,0,0,0,2.4727,2.1016,4.0477,4.0477,0,0,0,1.7539.4258,3.6983,3.6983,0,0,0,.5078-0.0352,2.8757,2.8757,0,0,0,2.3555-1.668,2.8174,2.8174,0,0,0,.2539-1.1641,3.0373,3.0373,0,0,0-.1094-0.793,3.38,3.38,0,0,0-1.1836-1.6641l-0.8086-.75a2.2774,2.2774,0,0,1-.7266-0.91,0.7962,0.7962,0,0,1-.0352-0.2734,0.7606,0.7606,0,0,1,.0859-0.3984,0.9606,0.9606,0,0,1,.6641-0.5977,1.2071,1.2071,0,0,1,.3125-0.043,2.0839,2.0839,0,0,1,.8711.2227,3.0245,3.0245,0,0,1,.8672.6094,3.8813,3.8813,0,0,1,.6445.8594l0.1914,0.3242,0.3047-.2109,0.7617-.5039Zm48.7266-87.9141c0.0078,1.3906.457,1.9453,1.5313,2.1172,0.0977,0.0039.2539,0.0273,0.3633,0.0273,1.0742-.0273,1.6758-0.7109,1.9688-2.5625a6.16,6.16,0,0,0,.0625-0.8516c-0.02-1.4062-.5-1.98-1.5937-2.16a3.1406,3.1406,0,0,0-.3437-0.0312c-1.0273.0234-1.6406,0.707-1.918,2.543a4.79,4.79,0,0,0-.07.918m-1.5273,2.2227a4.2771,4.2771,0,0,1-.707-2.4961,5.622,5.622,0,0,1,.07-0.9531,4.8722,4.8722,0,0,1,1.5781-3.1523,3.6972,3.6972,0,0,1,2.48-.8945,4,4,0,0,1,.6758.0664,3.8665,3.8665,0,0,1,2.8555,1.6484,4.5194,4.5194,0,0,1,.6953,2.543,8.5383,8.5383,0,0,1-.0352.8867,5.0192,5.0192,0,0,1-1.582,3.2109,3.8684,3.8684,0,0,1-2.5234.875,4.5274,4.5274,0,0,1-.7266-0.0625,3.6964,3.6964,0,0,1-2.7812-1.6719m-22.3789-2.43a3.2593,3.2593,0,0,0-1.668.6719,1.01,1.01,0,0,0-.4414.8164c0,0.0469,0,.1094.0039,0.1563a0.8541,0.8541,0,0,0,.3711.6055,0.9156,0.9156,0,0,0,.5352.1992,0.68,0.68,0,0,0,.1445-0.02,2.5731,2.5731,0,0,0,1.4453-.84c-0.0859-.5352-0.168-1.07-0.2539-1.5937-0.0469,0-.09.0039-0.1367,0.0039m-4.3086-3.52-0.0469-.2187,0.207-.1367a7.3989,7.3989,0,0,1,2.73-1.0234,3.1918,3.1918,0,0,1,.7266-0.0586,2.6815,2.6815,0,0,1,1.57.4336,3.0258,3.0258,0,0,1,1.0625,2.0313c0.18,1.2227.3594,2.4453,0.5469,3.6563,0.1406,0.7383.3125,0.8633,0.4883,0.8633,0.02,0,.0391-0.0078.0664-0.0078a1.6271,1.6271,0,0,1,.2266-0.0664l0.34-.1055,0.0859,0.3516c0.082,0.25.168,0.52,0.2461,0.7813L169.98,126.73l-0.1953.1406a2.6461,2.6461,0,0,1-1.2109.4453,1.09,1.09,0,0,1-.25.0273,1.566,1.566,0,0,1-1.332-.7617,3.6057,3.6057,0,0,1-2.1875,1.2852,2.0216,2.0216,0,0,1-.457.0352,2.5855,2.5855,0,0,1-1.5352-.48,2.4276,2.4276,0,0,1-1.0117-1.7187,2.9291,2.9291,0,0,1-.0469-0.4687,2.6612,2.6612,0,0,1,.93-2.0312,6.3963,6.3963,0,0,1,3.2148-1.25c-0.0352-.1992-0.0664-0.41-0.0977-0.6172a0.8658,0.8658,0,0,0-.9453-0.93,1.7465,1.7465,0,0,0-.2773.0156,5.04,5.04,0,0,0-2.1875,1l-0.4727.3477-0.0742-.5781c-0.0586-.4023-0.1289-0.8047-0.168-1.207m51.6484,7.32c0.8594,0.3438,1.73.6953,2.5742,1.0273a2.5231,2.5231,0,0,0,.168-0.8516,1.0305,1.0305,0,0,0-.7578-1.082,1.2729,1.2729,0,0,0-.5937-0.1328,1.7416,1.7416,0,0,0-1.3906,1.0391m-2.5937.2344a5.0172,5.0172,0,0,1,2.2813-2.6133,3.4481,3.4481,0,0,1,1.6914-.4492,3.2854,3.2854,0,0,1,1.3672.2891,2.8616,2.8616,0,0,1,1.9023,2.0352,4.9158,4.9158,0,0,1,.1133.9141,6.1,6.1,0,0,1-.5547,2.375,1.9018,1.9018,0,0,1-.1875.418l-0.1172.3125-0.3125-.1211c-1.4375-.5859-2.9258-1.1719-4.3281-1.7539a3.8608,3.8608,0,0,0-.1406.8984,2.03,2.03,0,0,0,1.5078,2.043,5.77,5.77,0,0,0,2.1172.3477l0.5156,0.0313-0.18.4648c-0.168.3555-.3164,0.7227-0.4727,1.0742l-0.1211.2422-0.23-.0273a10.0362,10.0362,0,0,1-2.6133-.5469,4.088,4.088,0,0,1-2.4023-2.3906,3.7654,3.7654,0,0,1-.2852-1.4883,5.1686,5.1686,0,0,1,.4492-2.0547m-54.1758-8.4219,0.0742,0.3281,0.34-.07c0.48-.1055.9492-0.1992,1.4258-0.2969l0.3359-.0664-0.0625-.34c-0.1211-.4961-0.2266-0.9727-0.332-1.4492l-0.0664-.332-0.3359.0586c-0.4727.1094-.9492,0.2109-1.4141,0.3125l-0.3516.0586,0.082,0.3477c0.1133,0.4766.2109,0.9609,0.3047,1.4492m78.5859,15.16,0.2891,0.1914,0.207-.2734c0.2539-.4062.5781-0.82,0.8477-1.2109l0.2266-.3086-0.3125-.1992c-0.3984-.27-0.8125-0.5508-1.1953-0.8125l-0.2812-.1875-0.207.2773c-0.2969.41-.5781,0.8086-0.8555,1.2188l-0.23.2891,0.3164,0.1914c0.3984,0.2734.8164,0.5508,1.1953,0.8242M136.02,130.7266c0.52,1.0273,1.043,2.082,1.5586,3.1094a4.3216,4.3216,0,0,0,1.1016.168,2.1932,2.1932,0,0,0,.93-0.2031,1.35,1.35,0,0,0,.8555-1.3359,4.47,4.47,0,0,0-.6016-2.02c-0.6406-1.2734-1.293-1.7812-1.8906-1.7656a1.38,1.38,0,0,0-.6133.16,2.7859,2.7859,0,0,0-1.34,1.8867m-3.1016-1.3906L132.77,129.02l0.3164-.1484c0.4375-.207.8789-0.418,1.3125-0.6289l0.3047-.1406,0.16,0.2969c0.07,0.1406.1289,0.2656,0.2031,0.3984A3.0142,3.0142,0,0,1,136.73,126.93a3.31,3.31,0,0,1,1.4766-.3555,3.1025,3.1025,0,0,1,1.3633.3086,5.2235,5.2235,0,0,1,2.2461,2.4336,6.2143,6.2143,0,0,1,.7383,2.7813,4.7394,4.7394,0,0,1-.07.793,3.2439,3.2439,0,0,1-1.8594,2.4375,3.3664,3.3664,0,0,1-1.5117.3555,4.08,4.08,0,0,1-.6172-0.0625c0.4727,0.9258.9336,1.8359,1.41,2.75l0.1641,0.3359-0.332.1563c-0.4453.1992-.8906,0.4141-1.3281,0.6289l-0.3008.1406-0.1484-.293c-1.6992-3.3437-3.3828-6.6641-5.043-10.0039m-5.1641,6.3477a2.8757,2.8757,0,0,1,.8828-2.2852,0.7454,0.7454,0,0,1,.4219-0.1484,1.1292,1.1292,0,0,1,.8125.6211c1.0977,1.5742,2.2188,3.1406,3.3438,4.707l0.1875,0.2578,0.2773-.1758c0.4141-.2617.8164-0.543,1.2266-0.8086l0.3008-.207-0.2148-.293c-1.1562-1.6289-2.3242-3.2578-3.4687-4.8867a2.9785,2.9785,0,0,0-1.7148-1.2812,1.6844,1.6844,0,0,0-.5273-0.0625,2.5656,2.5656,0,0,0-1.4883.5039,3.1,3.1,0,0,0-1.4023,2.5664,2.7582,2.7582,0,0,0-1.2656-.3242,2.5193,2.5193,0,0,0-1.4141.4453,3.1917,3.1917,0,0,0-1.4141,2.1914c-0.1055-.168-0.2109-0.3086-0.3047-0.457l-0.1953-.2656-0.2812.1719c-0.4141.2734-.8164,0.5313-1.2227,0.7852l-0.293.207,0.1914,0.2891q2.3438,3.416,4.7227,6.7891l0.1992,0.2734,0.2656-.1758c0.4219-.2812.832-0.5469,1.2344-0.8008l0.3164-.207-0.2148-.2891q-1.5586-2.2324-3.1133-4.4531a2.802,2.802,0,0,1,.8906-2.2539,0.7455,0.7455,0,0,1,.4219-0.1445,1.0911,1.0911,0,0,1,.8477.6172c1.1016,1.5625,2.1992,3.1523,3.3125,4.7148l0.2031,0.2813,0.27-.1836c0.4063-.2812.832-0.543,1.23-0.8164l0.3125-.1914-0.207-.2969c-1.0586-1.4766-2.1016-2.9531-3.1289-4.4141m29.3867-15.5313-0.332.0625,0.082,0.3477c0.5742,2.6523,1.168,5.3047,1.7578,7.9531l0.0664,0.3477,0.3438-.07c0.4922-.1055.9648-0.2109,1.4258-0.2969l0.34-.0859-0.0781-.34c-0.5977-2.6641-1.1836-5.2969-1.77-7.9609l-0.0742-.3359-0.34.0664c-0.4687.1016-.9453,0.2109-1.4219,0.3125m-41.1484,16.7734-0.2227-.25-0.2539.2148c-0.3867.332-.8047,0.668-1.1953,1l-0.2852.2266,0.25,0.2539c2.4922,2.832,5.0313,5.6445,7.5781,8.4375l0.2227,0.2422,0.2578-.2148c0.4023-.34.793-0.668,1.1992-1l0.2773-.23-0.2422-.2773c-2.5625-2.77-5.09-5.582-7.5859-8.4023m101.1836-1.8242,0.3281,0.1484c0.4258,0.2109.8555,0.4336,1.2773,0.6484l0.332,0.1445,0.1563-.3008c1.8125-3.5391,3.6211-7.09,5.3867-10.6367l0.1406-.3047-0.3086-.1562c-0.4258-.2109-0.8711-0.4258-1.2969-0.6328l-0.3008-.1445-0.1523.3086c-1.7578,3.5352-3.6055,7.07-5.3945,10.6016Zm-18.7812-6.3945,0.34,0.0859,0.082-.34c0.3945-1.7148.7969-3.43,1.1719-5.16a2.6112,2.6112,0,0,1,1.8555-.9844,1.63,1.63,0,0,1,.3789.0352,1.8306,1.8306,0,0,1,.5156.2227l0.418,0.2539,0.1211-.4727c0.09-.457.1836-0.9023,0.2734-1.3477l0.07-.2969-0.2539-.1055c-0.1914-.0625-0.3437-0.1055-0.5078-0.1484a4.2067,4.2067,0,0,0-.6758-0.0859,2.7371,2.7371,0,0,0-1.625.5273,2.81,2.81,0,0,1,.082-0.3945l0.0977-.3437-0.3437-.0664c-0.4883-.1016-0.9492-0.2109-1.4219-0.3125l-0.3516-.0742-0.082.332c-0.5937,2.6445-1.1875,5.293-1.8242,7.957l-0.0742.332,0.3477,0.0781c0.4531,0.0977.9492,0.2109,1.4063,0.3086m-47.8555-6.5-0.082-.34,0.332-.09c0.4648-.1211.9336-0.2578,1.3945-0.3789l0.34-.0977,0.0859,0.332c0.043,0.1367.082,0.2578,0.1289,0.3906a2.8816,2.8816,0,0,1,1.8125-1.4844c0.1484-.043.3359-0.0547,0.5078-0.09l0.293-.043,0.082,0.2969c0.1211,0.4453.2461,0.8867,0.375,1.32l0.1367,0.5-0.5078-.0391h-0.125a1.6174,1.6174,0,0,0-.418.0352,2.22,2.22,0,0,0-1.48,1.8672c0.4688,1.6992.9648,3.3945,1.4414,5.082l0.1016,0.3477-0.3437.0977c-0.4727.1211-.9219,0.2656-1.4023,0.375l-0.3359.1016-0.0977-.3281c-0.73-2.625-1.4883-5.2461-2.2383-7.8555" transform="translate(-114.0352 -114.2578)"/></g></svg>