<svg width="2030" height="724" viewBox="0 0 2030 724" fill="none" xmlns="http://www.w3.org/2000/svg">
<path d="M720.215 358.76C720.215 327.759 715.264 297.711 706.847 269.094C706.847 266.71 706.352 264.802 704.867 262.894C662.785 136.027 539.014 43.5 393.459 43.5C247.904 43.5 124.133 135.55 82.0513 262.894C80.566 264.802 80.0709 266.71 80.0709 269.094C71.1594 297.234 66.7036 327.282 66.7036 358.76C66.7036 493.735 155.324 608.678 279.095 653.511V678.789H297.908V418.378L393.954 316.789L490.001 418.378V678.789H508.814V653.511C632.09 608.678 720.215 493.735 720.215 358.76ZM278.6 411.224V634.433C177.107 595.324 102.35 505.182 87.4972 397.392C91.953 403.116 96.4087 408.362 99.8743 412.655C101.855 415.039 103.835 417.424 104.825 418.855C115.717 433.163 128.589 445.564 140.471 457.964C152.848 470.365 164.73 481.811 174.632 495.166C176.612 497.551 179.088 498.981 182.058 498.981C184.039 498.981 186.019 498.504 187.504 497.074C191.465 494.212 192.455 488.489 189.484 484.673C178.593 470.365 165.72 457.964 153.838 445.564C141.461 433.163 129.579 421.716 119.678 408.362C118.688 406.931 116.707 404.546 114.232 401.685C105.815 391.669 90.9628 373.545 85.0218 359.714C85.0218 359.237 85.0218 359.237 85.0218 358.76C85.0218 337.297 87.4972 315.835 91.9529 295.803C101.36 314.404 112.251 335.867 122.648 349.221C133.54 363.529 149.383 378.315 164.73 392.623C179.583 406.454 194.435 420.763 204.832 434.117C206.812 436.502 209.288 437.933 212.258 437.933C214.239 437.933 216.219 437.456 217.704 436.025C221.665 433.163 222.655 427.44 219.685 423.624C208.793 409.316 192.95 394.531 177.602 380.222C162.75 366.391 147.897 352.083 137.501 338.728C126.114 323.943 112.251 295.326 102.845 276.726L99.3792 269.094C103.835 255.263 109.776 241.909 116.212 229.031C118.687 233.801 121.163 238.57 123.143 243.339C130.569 259.079 138.491 275.772 150.373 290.557C161.265 304.865 177.107 319.65 192.455 333.959C207.307 347.79 222.16 362.098 232.557 375.453C234.537 377.838 237.013 379.268 239.983 379.268C241.963 379.268 243.944 378.791 245.429 377.361C249.39 374.499 250.38 368.776 247.409 364.96C236.517 350.652 220.675 335.867 205.327 321.558C190.475 307.727 175.622 293.419 165.225 280.064C154.829 266.233 147.402 250.971 139.976 235.708C135.52 226.646 131.56 218.061 126.609 209.476C134.035 197.076 142.452 185.629 151.363 174.183C158.294 184.675 162.75 194.691 167.701 205.184C174.137 219.015 181.068 233.324 192.455 248.586C195.921 252.878 199.881 257.648 203.842 261.94L204.337 262.417C213.248 272.433 224.14 281.972 234.042 291.988C248.895 305.819 263.747 320.127 274.144 333.482C276.124 335.867 278.6 337.297 281.57 337.297C283.55 337.297 285.531 336.82 287.016 335.39C290.977 332.528 291.967 326.805 288.996 322.989C278.105 308.681 262.262 293.895 246.914 279.587C240.973 273.864 235.032 268.617 229.586 262.894C243.449 261.94 254.836 264.802 264.242 267.664L266.222 268.141C313.255 280.541 337.02 317.266 346.921 338.251L278.6 411.224ZM361.279 323.943C348.407 299.619 321.672 263.848 272.164 250.971L270.183 250.494C257.806 247.155 238.993 242.386 215.229 247.155C212.753 244.293 210.278 241.432 207.803 238.57C197.406 225.216 191.465 212.338 185.029 198.507C179.088 186.106 173.642 173.706 164.235 160.351C220.675 99.7794 302.364 62.1009 393.459 62.1009C484.06 62.1009 565.748 100.256 622.683 160.351C613.276 173.706 607.336 186.106 601.89 198.507C595.454 211.861 589.513 224.739 579.116 238.57C577.135 241.432 574.165 244.293 571.689 247.155C547.925 242.386 529.112 247.155 516.735 250.494L514.755 250.971C465.246 263.848 438.512 299.619 425.64 323.943L393.954 290.557L361.279 323.943ZM507.824 634.433V411.224L438.017 337.774C447.918 316.789 471.682 280.064 518.715 267.664L520.696 267.187C530.102 264.802 541.489 261.463 555.352 262.417C549.906 268.141 543.965 273.387 538.024 279.11C522.676 293.419 506.834 308.204 495.942 322.512C492.971 326.328 493.961 332.051 497.922 334.913C499.407 335.867 501.388 336.82 503.368 336.82C506.338 336.82 508.814 335.39 510.794 333.005C521.191 319.651 536.043 305.342 550.896 291.511C560.798 281.972 571.194 272.433 580.601 262.417C581.096 261.94 581.096 261.94 581.591 261.463C585.552 257.171 589.512 252.401 592.978 248.109C604.365 233.324 611.296 218.538 617.732 204.707C622.683 194.214 627.634 183.721 634.07 173.706C642.982 184.675 651.398 196.599 658.824 209C653.873 217.108 649.913 226.17 645.457 235.231C638.526 250.017 631.1 265.756 620.208 279.587C609.811 292.942 594.959 307.25 580.106 321.081C564.758 335.39 548.916 350.175 538.024 364.483C535.053 368.299 536.043 374.022 540.004 376.884C541.489 377.838 543.47 378.791 545.45 378.791C548.421 378.791 550.896 377.361 552.876 374.976C563.273 361.622 578.126 347.313 592.978 333.482C608.326 319.174 624.168 304.388 635.06 290.08C646.942 274.818 654.368 258.602 662.29 242.863C664.765 238.093 666.746 233.324 669.221 228.554C675.657 241.432 681.598 254.786 686.054 268.618L682.588 276.249C673.182 295.326 659.319 323.466 647.932 338.251C637.536 351.606 622.683 365.914 607.831 379.745C592.483 394.054 576.64 408.839 565.748 423.147C562.778 426.963 563.768 432.686 567.729 435.548C569.214 436.502 571.194 437.456 573.175 437.456C576.145 437.456 578.621 436.025 580.601 433.64C590.998 420.286 605.85 405.977 620.703 392.146C636.05 377.838 651.893 363.052 662.785 348.744C673.182 335.39 684.074 313.927 693.48 295.326C697.936 315.835 700.411 336.82 700.411 358.76C700.411 359.237 700.411 359.237 700.411 359.714C693.975 373.545 679.123 391.669 671.201 401.685C668.726 404.546 667.241 406.931 665.755 408.362C655.359 421.716 643.972 433.163 631.595 445.564C619.218 457.487 606.84 470.365 595.949 484.673C592.978 488.489 593.968 494.212 597.929 497.074C599.414 498.027 601.395 498.981 603.375 498.981C606.345 498.981 608.821 497.551 610.801 495.166C621.198 481.811 632.585 470.365 644.962 457.964C657.339 446.041 669.716 433.163 680.608 418.855C681.598 417.424 683.579 415.516 685.559 412.655C689.024 408.362 693.48 403.116 697.936 397.392C684.569 505.182 609.316 595.324 507.824 634.433Z" fill="#2A394E"/>
<path d="M896.566 224.631H901.517C903.498 224.631 904.488 223.677 904.488 221.769L911.419 139.735H926.271L950.036 190.768C952.511 196.014 954.986 203.168 954.986 203.168H955.481C955.481 203.168 957.957 196.014 960.432 190.768L984.196 139.735H999.049L1005.98 221.769C1005.98 223.677 1006.97 224.631 1008.95 224.631H1013.9V236.554H1001.03C994.593 236.554 992.118 234.17 991.623 227.969L987.662 176.936C987.167 171.213 987.167 162.628 987.167 162.628H986.672C986.672 162.628 983.701 171.69 981.226 176.936L960.927 219.384H949.045L928.747 176.936C926.271 171.69 923.301 162.628 923.301 162.628H922.806C922.806 162.628 922.806 171.213 922.311 176.936L918.35 227.969C917.855 234.17 915.875 236.554 909.439 236.554H896.566V224.631V224.631Z" fill="#2A394E"/>
<path d="M1021.33 258.013L1027.27 248.474C1027.27 248.951 1031.73 253.243 1037.67 253.243C1043.12 253.243 1047.57 249.428 1050.54 243.227L1054.01 235.596L1029.25 180.748C1028.26 178.363 1027.27 177.886 1024.8 177.886H1022.82V166.439H1030.74C1036.68 166.439 1038.66 167.87 1041.14 173.594L1057.47 212.703C1058.96 216.042 1059.95 221.288 1059.95 221.288H1060.44C1060.44 221.288 1061.43 216.518 1062.92 212.703L1078.27 173.594C1080.25 167.87 1082.72 166.439 1088.66 166.439H1097.08V177.886H1095.1C1092.62 177.886 1091.63 178.363 1090.64 180.748L1062.42 248.474C1057.97 258.966 1049.06 264.69 1039.16 264.69C1027.77 265.167 1021.33 258.013 1021.33 258.013Z" fill="#2A394E"/>
<path d="M1117.38 218.908C1119.36 220.816 1126.29 227.016 1136.69 227.016C1144.61 227.016 1151.54 223.2 1151.54 215.569C1151.54 208.892 1146.59 205.076 1136.69 205.076H1127.28V196.015H1134.71C1143.62 196.015 1149.06 192.676 1149.06 185.522C1149.06 178.368 1143.62 175.506 1136.69 175.506C1131.74 175.506 1124.81 177.414 1124.81 182.183V185.522H1113.42V178.845C1113.42 169.306 1125.3 165.49 1137.68 165.49C1152.53 165.49 1162.93 172.167 1162.93 184.091C1162.93 192.676 1157.98 197.922 1152.03 199.83V200.307C1158.97 202.215 1164.91 207.461 1164.91 217C1164.91 231.308 1152.03 238.463 1137.18 238.463C1123.32 238.463 1114.9 232.262 1110.45 228.447L1117.38 218.908Z" fill="#2A394E"/>
<path d="M1218.38 165.023C1238.68 165.023 1249.57 179.809 1249.57 197.456C1249.57 198.887 1249.57 200.794 1249.07 202.702H1196.59C1197.58 217.964 1208.48 226.072 1221.35 226.072C1229.27 226.072 1236.7 222.734 1242.64 217.964L1248.58 227.503C1241.65 233.703 1230.76 237.519 1220.85 237.519C1198.08 237.519 1182.73 221.78 1182.73 201.271C1182.24 179.332 1198.08 165.023 1218.38 165.023ZM1235.71 194.117C1235.21 181.716 1227.78 175.516 1218.38 175.516C1207.49 175.516 1199.07 182.193 1197.09 194.117H1235.71Z" fill="#2A394E"/>
<path d="M1273.83 181.225C1273.83 179.317 1272.84 178.363 1270.86 178.363H1264.92V166.917H1277.79C1284.23 166.917 1286.7 169.301 1286.7 175.502V208.411C1286.7 212.226 1286.21 217.473 1286.21 217.95H1286.7C1287.2 216.996 1291.16 211.272 1293.64 208.411L1324.83 166.44H1338.69V221.288C1338.69 223.196 1339.68 224.15 1341.66 224.15H1347.6V235.597H1334.73C1328.29 235.597 1325.82 233.212 1325.82 227.012V194.103C1325.82 190.764 1326.31 185.518 1326.31 184.564H1325.32C1324.83 185.994 1320.87 191.241 1318.39 194.103L1287.2 236.074H1273.34V181.225H1273.83ZM1284.72 141.162V139.254H1295.62V141.162C1295.62 147.362 1300.57 150.224 1305.52 150.224C1310.47 150.224 1315.42 147.362 1315.42 141.162V139.254H1326.31V141.162C1326.31 152.608 1316.41 158.809 1305.02 158.809C1295.12 158.809 1284.72 152.608 1284.72 141.162Z" fill="#2A394E"/>
<path d="M927.327 351.02L907.028 319.064C905.048 315.726 903.563 315.726 900.097 315.726H896.632V303.802H905.048C911.979 303.802 914.95 305.233 918.416 311.433L929.802 330.034C932.773 335.281 936.239 341.481 936.239 341.481H936.734C936.734 341.481 939.704 335.281 942.675 330.034L954.062 311.433C957.527 305.233 960.498 303.802 967.429 303.802H975.845V315.726H972.38C969.409 315.726 967.924 316.203 965.944 319.064L945.645 351.02L977.331 401.099H960.993L942.675 371.528C939.704 366.282 936.239 360.558 936.239 360.558H935.743C935.743 360.558 932.773 366.282 929.802 371.528L911.484 401.099H895.642L927.327 351.02Z" fill="#2A394E"/>
<path d="M997.133 346.246C997.133 344.339 996.143 343.385 994.163 343.385H988.222V331.938H1001.09C1007.53 331.938 1010.01 334.323 1010.01 339.092C1010.01 341 1010.01 342.908 1010.01 342.908H1010.5C1010.5 342.908 1016.44 330.507 1034.26 330.507C1053.57 330.507 1065.95 345.293 1065.95 366.755C1065.95 388.694 1052.09 403.003 1033.27 403.003C1017.43 403.003 1011 392.033 1011 392.033H1010.5C1010.5 392.033 1011 394.418 1011 398.233V429.234H997.133V346.246ZM1030.8 391.556C1042.19 391.556 1051.59 382.494 1051.59 366.755C1051.59 351.493 1043.18 341.954 1031.29 341.954C1020.4 341.954 1010.5 349.108 1010.5 366.755C1010.5 379.156 1017.43 391.556 1030.8 391.556Z" fill="#2A394E"/>
<path d="M1089.71 346.238C1089.71 344.33 1088.72 343.376 1086.74 343.376H1080.8V331.93H1093.67C1100.11 331.93 1102.58 334.314 1102.58 340.515V373.424C1102.58 377.239 1102.09 382.486 1102.09 382.962H1102.58C1103.08 382.009 1107.04 376.285 1109.52 373.424L1140.71 331.453H1154.57V386.301C1154.57 388.209 1155.56 389.163 1157.54 389.163H1163.48V400.609H1150.61C1144.17 400.609 1141.7 398.225 1141.7 392.024V359.115C1141.7 355.777 1142.19 350.53 1142.19 349.577H1141.7C1141.2 351.007 1137.24 356.254 1134.76 359.115L1103.57 401.086H1089.71V346.238Z" fill="#2A394E"/>
<path d="M1216.46 330.034C1225.37 330.034 1242.2 333.373 1242.2 345.296V352.451H1229.82V348.635C1229.82 343.866 1221.41 341.481 1216.46 341.481C1202.59 341.481 1191.7 351.497 1191.7 366.282C1191.7 382.021 1203.58 391.083 1217.45 391.083C1230.81 391.083 1239.73 381.544 1239.73 381.544L1245.67 391.083C1245.67 391.083 1235.77 403.007 1216.46 403.007C1193.68 403.007 1177.84 387.268 1177.84 366.759C1177.84 345.773 1193.19 330.034 1216.46 330.034Z" fill="#2A394E"/>
<path d="M1287.74 342.899H1273.88C1271.9 342.899 1270.91 343.853 1270.91 345.761V350.53H1259.52V340.038C1259.52 333.837 1261.99 331.453 1268.43 331.453H1320.91C1327.35 331.453 1329.82 333.837 1329.82 340.038V350.53H1318.43V345.761C1318.43 343.853 1317.44 342.899 1315.46 342.899H1301.6V401.086H1287.74V342.899Z" fill="#2A394E"/>
<path d="M1354.57 346.238C1354.57 344.33 1353.58 343.376 1351.6 343.376H1345.66V331.93H1358.53C1364.97 331.93 1367.45 334.314 1367.45 340.515V373.424C1367.45 377.239 1366.95 382.486 1366.95 382.962H1367.45C1367.94 382.009 1371.9 376.285 1374.38 373.424L1405.57 331.453H1419.43V386.301C1419.43 388.209 1420.42 389.163 1422.4 389.163H1428.34V400.609H1415.47C1409.03 400.609 1406.56 398.225 1406.56 392.024V359.115C1406.56 355.777 1407.05 350.53 1407.05 349.577H1406.56C1406.06 351.007 1402.1 356.254 1399.63 359.115L1368.44 401.086H1354.57V346.238Z" fill="#2A394E"/>
<path d="M1487.27 357.697H1490.24V356.743C1490.24 344.819 1485.29 340.527 1474.4 340.527C1470.93 340.527 1462.52 341.481 1462.52 345.773V349.589H1449.64V342.435C1449.64 331.465 1467.96 329.557 1474.4 329.557C1498.16 329.557 1504.6 341.004 1504.6 356.743V386.313C1504.6 388.221 1505.59 389.175 1507.57 389.175H1513.51V400.622H1500.14C1493.71 400.622 1491.23 397.76 1491.23 392.514C1491.23 390.129 1491.23 388.221 1491.23 388.221H1490.74C1490.74 388.221 1484.8 402.053 1467.47 402.053C1455.09 402.053 1443.21 394.898 1443.21 381.544C1443.7 358.651 1474.89 357.697 1487.27 357.697ZM1470.93 392.037C1482.81 392.037 1490.24 380.113 1490.24 370.097V367.713H1486.78C1476.38 367.713 1457.57 368.667 1457.57 381.067C1457.07 386.791 1462.02 392.037 1470.93 392.037Z" fill="#2A394E"/>
<path d="M1534.3 346.238C1534.3 344.33 1533.31 343.376 1531.33 343.376H1525.39V331.93H1539.25C1545.69 331.93 1548.17 334.314 1548.17 340.515V360.069H1584.8V331.453H1598.66V386.301C1598.66 388.209 1599.65 389.163 1601.64 389.163H1607.58V400.609H1593.71C1587.28 400.609 1584.8 398.225 1584.8 392.024V371.039H1548.17V401.086H1534.3V346.238Z" fill="#2A394E"/>
<path d="M1661.04 330.034C1669.95 330.034 1686.78 333.373 1686.78 345.296V352.451H1674.41V348.635C1674.41 343.866 1665.99 341.481 1661.04 341.481C1647.18 341.481 1636.28 351.497 1636.28 366.282C1636.28 382.021 1648.17 391.083 1662.03 391.083C1675.4 391.083 1684.31 381.544 1684.31 381.544L1690.25 391.083C1690.25 391.083 1680.35 403.007 1661.04 403.007C1638.26 403.007 1622.42 387.268 1622.42 366.759C1622.42 345.773 1637.77 330.034 1661.04 330.034Z" fill="#2A394E"/>
<path d="M1713.52 346.238C1713.52 344.33 1712.53 343.376 1710.55 343.376H1704.61V331.93H1718.47C1724.91 331.93 1727.38 334.314 1727.38 340.515V359.115H1733.32C1736.29 359.115 1739.26 358.638 1740.75 355.777L1758.08 331.453H1773.42L1753.62 359.115C1750.65 363.408 1748.17 364.362 1748.17 364.362V364.839C1748.17 364.839 1750.65 365.793 1753.62 370.085L1764.02 387.255C1765.5 389.64 1766.49 390.117 1770.45 390.117H1774.91V401.563H1765.01C1758.08 401.563 1756.1 400.609 1753.12 394.886L1740.25 373.424C1738.77 371.039 1736.29 370.562 1733.32 370.562H1727.38V401.563H1713.52V346.238Z" fill="#2A394E"/>
<path d="M1826.9 330.034C1848.18 330.034 1866.01 345.296 1866.01 366.282C1866.01 387.268 1848.68 403.007 1826.9 403.007C1805.61 403.007 1788.28 387.745 1788.28 366.282C1787.78 345.296 1805.11 330.034 1826.9 330.034ZM1826.9 391.083C1840.76 391.083 1851.65 380.59 1851.65 366.282C1851.65 351.974 1840.76 341.481 1826.9 341.481C1813.53 341.481 1802.14 351.974 1802.14 366.282C1801.65 381.067 1813.03 391.083 1826.9 391.083Z" fill="#2A394E"/>
<path d="M1889.28 346.249C1889.28 344.341 1888.29 343.388 1886.31 343.388H1880.37V331.941H1893.24C1899.67 331.941 1902.15 334.326 1902.15 340.526V373.435C1902.15 377.251 1901.65 382.497 1901.65 382.974H1902.15C1902.64 382.02 1906.6 376.297 1909.08 373.435L1940.27 331.464H1954.13V386.312C1954.13 388.22 1955.12 389.174 1957.1 389.174H1963.04V400.621H1950.17C1943.74 400.621 1941.26 398.236 1941.26 392.036V359.127C1941.26 355.788 1941.76 350.542 1941.76 349.588H1941.26C1940.77 351.019 1936.81 356.265 1934.33 359.127L1903.14 401.098H1889.28V346.249ZM1900.17 306.186V304.278H1911.06V306.186C1911.06 312.386 1916.01 315.248 1920.96 315.248C1925.91 315.248 1930.86 312.386 1930.86 306.186V304.278H1941.76V306.186C1941.76 317.633 1931.85 323.833 1920.47 323.833C1910.07 323.833 1900.17 317.633 1900.17 306.186Z" fill="#2A394E"/>
<path d="M900.182 484.078C900.182 482.171 899.192 481.217 897.211 481.217H891.271V469.293H905.628C912.064 469.293 914.539 471.678 914.539 477.878V509.834H923.946C927.412 509.834 930.382 509.357 932.362 506.495L954.641 468.816H970.484L946.225 508.88C943.254 513.649 940.284 515.08 940.284 515.08V515.557C940.284 515.557 943.254 516.034 946.225 521.757L961.572 550.851C963.057 553.712 965.038 554.189 968.503 554.189H970.979V566.113H963.058C955.136 566.113 952.166 565.159 949.195 558.959L931.867 525.096C930.382 521.757 926.916 521.757 922.956 521.757H914.539V566.113H900.182V484.078V484.078Z" fill="#2A394E"/>
<path d="M976.418 588.068L982.36 578.529C982.36 579.006 986.815 583.299 992.756 583.299C998.202 583.299 1002.66 579.483 1005.63 573.283L1009.09 565.652L984.34 510.803C983.35 508.419 982.36 507.942 979.884 507.942H977.904V496.495H985.825C991.766 496.495 993.746 497.926 996.222 503.649L1012.56 542.759C1014.05 546.097 1015.04 551.344 1015.04 551.344H1015.53C1015.53 551.344 1016.52 546.574 1018.01 542.759L1033.35 503.649C1035.33 497.926 1037.81 496.495 1043.75 496.495H1052.17V507.942H1050.19C1047.71 507.942 1046.72 508.419 1045.73 510.803L1017.51 578.529C1013.05 589.022 1004.14 594.746 994.242 594.746C982.855 594.746 976.418 588.068 976.418 588.068Z" fill="#2A394E"/>
<path d="M1062.07 554.682C1074.94 554.205 1078.9 530.358 1078.9 513.188V507.942H1069.99V496.495H1116.53C1122.97 496.495 1125.44 498.88 1125.44 505.08V551.344C1125.44 553.251 1126.43 554.205 1128.41 554.205H1134.35V565.652H1120.99C1114.55 565.652 1111.58 563.267 1111.58 557.067V510.803C1111.58 508.896 1110.59 507.942 1108.61 507.942H1092.27V513.665C1092.27 531.312 1088.81 566.606 1062.07 566.606V554.682V554.682Z" fill="#2A394E"/>
<path d="M1157.62 510.803C1157.62 508.896 1156.63 507.942 1154.65 507.942H1148.71V496.495H1162.57C1169.01 496.495 1171.48 498.88 1171.48 504.603V522.25H1185.84C1202.18 522.25 1211.58 530.835 1211.58 544.189C1211.58 558.021 1201.19 566.129 1185.84 566.129H1165.54C1160.09 566.129 1157.62 563.744 1157.62 558.498V510.803V510.803ZM1173.96 556.59H1183.86C1192.28 556.59 1197.23 551.343 1197.23 544.189C1197.23 536.558 1192.28 531.789 1183.86 531.789H1170.99V553.728C1171.48 555.636 1172.47 556.59 1173.96 556.59Z" fill="#2A394E"/>
<path d="M1248.23 507.942H1234.37C1232.39 507.942 1231.4 508.896 1231.4 510.803V515.573H1220.01V505.08C1220.01 498.88 1222.49 496.495 1228.93 496.495H1281.41C1287.84 496.495 1290.32 498.88 1290.32 505.08V515.573H1278.93V510.803C1278.93 508.896 1277.94 507.942 1275.96 507.942H1262.1V566.129H1248.23V507.942Z" fill="#2A394E"/>
<path d="M1303.68 588.068L1309.62 578.529C1309.62 579.006 1314.07 583.299 1320.01 583.299C1325.46 583.299 1329.91 579.483 1332.89 573.283L1336.35 565.652L1311.6 510.803C1310.61 508.419 1309.62 507.942 1307.14 507.942H1305.16V496.495H1313.08C1319.02 496.495 1321 497.926 1323.48 503.649L1339.82 542.759C1341.3 546.097 1342.29 551.344 1342.29 551.344H1342.79C1342.79 551.344 1343.78 546.574 1345.26 542.759L1360.61 503.649C1362.59 497.926 1365.07 496.495 1371.01 496.495H1379.42V507.942H1377.44C1374.97 507.942 1373.98 508.419 1372.99 510.803L1344.77 578.529C1340.31 589.022 1331.4 594.746 1321.5 594.746C1310.11 594.746 1303.68 588.068 1303.68 588.068Z" fill="#2A394E"/>
<path d="M1403.19 510.789C1403.19 508.881 1402.2 507.927 1400.22 507.927H1394.27V496.481H1407.15C1413.58 496.481 1416.06 498.865 1416.06 503.635C1416.06 505.543 1416.06 507.45 1416.06 507.45H1416.55C1416.55 507.45 1422.49 495.05 1440.32 495.05C1459.63 495.05 1472 509.835 1472 531.298C1472 553.237 1458.14 567.545 1439.33 567.545C1423.48 567.545 1417.05 556.576 1417.05 556.576H1416.55C1416.55 556.576 1417.05 558.96 1417.05 562.776V593.777H1403.19V510.789ZM1436.85 556.576C1448.24 556.576 1457.65 547.514 1457.65 531.774C1457.65 516.512 1449.23 506.973 1437.35 506.973C1426.45 506.973 1416.55 514.127 1416.55 531.774C1416.55 544.175 1423.48 556.576 1436.85 556.576Z" fill="#2A394E"/>
<path d="M1495.77 510.803C1495.77 508.896 1494.78 507.942 1492.8 507.942H1486.86V496.495H1500.72C1507.16 496.495 1509.63 498.88 1509.63 504.603V522.25H1523.99C1540.33 522.25 1549.73 530.835 1549.73 544.189C1549.73 558.021 1538.84 566.129 1523.99 566.129H1503.69C1498.24 566.129 1495.77 563.744 1495.77 558.498V510.803V510.803ZM1512.6 556.59H1522.5C1531.41 556.59 1536.37 551.343 1536.37 544.189C1536.37 536.558 1531.91 531.789 1522.5 531.789H1509.63V553.728C1509.63 555.636 1510.62 556.59 1512.6 556.59ZM1561.12 496.495H1574.98V551.82C1574.98 553.728 1575.97 554.682 1577.95 554.682H1583.89V566.129H1570.53C1564.09 566.129 1561.61 563.744 1561.61 557.544V496.495H1561.12Z" fill="#2A394E"/>
</svg>
