<?xml version="1.0" encoding="utf-8"?>
<!-- Generator: Adobe Illustrator 28.3.0, SVG Export Plug-In . SVG Version: 6.00 Build 0)  -->
<svg version="1.1" id="Слой_1" xmlns="http://www.w3.org/2000/svg" xmlns:xlink="http://www.w3.org/1999/xlink" x="0px" y="0px"
	 viewBox="0 0 539 429.7" style="enable-background:new 0 0 539 429.7;" xml:space="preserve">
<style type="text/css">
	.st0{fill-rule:evenodd;clip-rule:evenodd;}
	.st1{fill:none;}
</style>
<g>
	<path d="M96.7,284.1c-0.8-0.4-1.8-1.1-3-2.1c-1.1-0.9-2.4-2.1-3.8-3.5c-1.5-1.4-4.7-5-9.8-10.6c-1.3-1.4-2.4-2.6-3.4-3.7
		c0,0,0,0,0,0c2.1,0,3.9-0.9,5.3-2.6c1.4-1.7,2.2-3.8,2.2-6.2c0-2.4-0.8-4.3-2.4-5.8c-1.6-1.5-3.6-2.2-6.2-2.2H63.7v0.4h0.6
		c0.8,0,1.4,0.3,1.9,0.8c0.6,0.5,0.9,1.2,0.9,2v24.5c0,0.8-0.3,1.4-0.9,2c-0.5,0.5-1.2,0.8-1.9,0.8h-0.6v0.4h9.7l0-0.4h-0.5
		c-0.8,0-1.5-0.3-2-0.8c-0.5-0.6-0.8-1.2-0.8-1.9v-26.4h5.5c1.7,0,3.1,0.7,4,2c1,1.3,1.5,3,1.5,5.2c0,2.6-0.9,4.5-2.6,5.6
		c-0.4,0.3-1,0.6-1.6,0.8c-0.6,0.2-1.3,0.3-1.9,0.4c-0.6,0.1-1.7,0.1-3.4,0.1v0.4c0.6,0.1,1.4,0.7,2.4,1.8c1,1.1,3.1,3.5,6.3,7
		c3.1,3.5,5.3,5.8,6.4,7.1c1.1,1.3,2.4,2.5,3.7,3.5c0.7,0.7,1.5,1.2,2.2,1.6s1.5,0.8,2.3,1.1c0.9,0.4,1.6,0.6,2.4,0.7
		c0.7,0.1,1.6,0.2,2.5,0.2c1,0,2.1-0.2,3.3-0.5v-0.5c-0.4,0.1-0.7,0.1-1.1,0.1C100.2,285.5,98.4,285.1,96.7,284.1z"/>
	<path d="M117.1,248.8c-2.4-1.4-5.2-2-8.3-2c-3.1,0-5.9,0.7-8.3,2c-2.4,1.3-4.3,3.2-5.6,5.6c-1.3,2.4-2,5.2-2,8.5c0,3.2,0.7,6,2,8.5
		c1.4,2.4,3.2,4.3,5.6,5.7c2.4,1.3,5.1,2,8.3,2c3.2,0,5.9-0.7,8.3-2c2.4-1.3,4.2-3.2,5.6-5.7c1.3-2.4,2-5.2,2-8.5c0-3.2-0.7-6-2-8.5
		C121.4,252,119.5,250.2,117.1,248.8z M119.7,270.6c-1,2.2-2.5,3.9-4.4,5.2c-1.9,1.2-4,1.9-6.5,1.9c-2.5,0-4.7-0.6-6.5-1.9
		c-1.9-1.2-3.3-3-4.4-5.2c-1-2.2-1.6-4.8-1.6-7.7s0.5-5.5,1.6-7.7c1.1-2.2,2.5-3.9,4.4-5.2c1.9-1.2,4.1-1.9,6.5-1.9
		c2.5,0,4.7,0.6,6.5,1.9c1.9,1.2,3.3,3,4.4,5.2c1.1,2.2,1.6,4.8,1.6,7.7S120.8,268.4,119.7,270.6z"/>
	<path d="M166,277.9c-0.8,0-1.5-0.2-2.1-0.7c-0.6-0.5-1-1.2-1.1-2l-3.4-28.4H159l-12.1,26.7l-12.3-26.7h-0.4l-3.3,28.4h0
		c-0.1,0.9-0.5,1.6-1.1,2.1c-0.6,0.5-1.3,0.7-2.1,0.7c0,0-0.1,0-0.3,0c-0.2,0-0.3,0-0.4,0v0.4h3.6h1.3h1h0.1h2.6V278h-0.7
		c-0.5,0-0.9-0.2-1.2-0.6c-0.3-0.4-0.5-0.8-0.5-1.3c0-0.1,0-0.1,0-0.1c0,0,0,0,0,0l1.9-21.4l11.3,24.5h0.4c0.1-0.6,0.2-1.3,0.5-1.9
		c0.2-0.7,0.5-1.3,0.7-1.8c0.2-0.5,0.4-0.8,0.4-0.8l9.3-20.7l2,22.1c0,0,0,0.1,0,0.1c0,0.5-0.2,0.9-0.5,1.3
		c-0.3,0.4-0.7,0.6-1.2,0.6h-0.7v0.4h2.6h0.1h2h1.3h3.5v-0.4c0,0-0.1,0-0.4,0C166.2,277.9,166,277.9,166,277.9z"/>
	<path d="M199,277.9c-0.7,0-1.4-0.2-2.1-0.6c-0.7-0.4-1.3-1.2-1.8-2.2h0l-11.8-28.4h-0.4c0,0.2-0.1,0.6-0.3,1.1
		c-0.1,0.5-0.3,1-0.6,1.5c-0.2,0.5-0.4,1-0.6,1.4c-0.1,0.4-0.2,0.5-0.2,0.5l-10.1,24c-0.5,0.9-1,1.6-1.7,2c-0.7,0.4-1.4,0.6-2.1,0.6
		c0,0-0.1,0-0.2,0c-0.1,0-0.2,0-0.2,0v0.4h8.9v-0.4h-0.4c-0.4,0-0.7-0.1-1.1-0.3c-0.3-0.2-0.6-0.6-0.7-1c-0.1-0.4-0.1-0.8,0-1.3
		l3-7.7h11.9l2.9,7.6c0.3,0.9,0.2,1.5-0.2,2c-0.4,0.5-0.9,0.7-1.5,0.7h-0.4v0.4h10v-0.4c0,0-0.1,0-0.2,0
		C199.1,277.9,199,277.9,199,277.9z M177.2,266.3l5.6-14.2l5.3,14.2H177.2z"/>
	<path d="M230.4,247.4h-1.8h-0.1H225v0.4c0,0,0.2,0,0.4,0c0.3,0,0.4,0,0.4,0c0.8,0,1.4,0.3,1.9,0.8c0.5,0.5,0.8,1.1,0.8,1.9v21.9
		l-24.1-25.7H204c0,0,0.1,0.5,0.2,1.6c0.1,1.1,0.2,2.4,0.2,3.9v23c0,0.7-0.3,1.4-0.8,1.9c-0.5,0.5-1.2,0.8-1.9,0.8c0,0-0.2,0-0.4,0
		c-0.3,0-0.4,0-0.4,0v0.4h3.5h0.1h1.8h0.1h3.5v-0.4c0,0-0.1,0-0.4,0c-0.3,0-0.4,0-0.4,0c-0.7,0-1.4-0.3-1.9-0.8
		c-0.5-0.5-0.8-1.2-0.8-1.9h0l0-22l24.1,25.7h0.4c0,0,0-0.3-0.1-0.8c0-0.6-0.1-1.3-0.2-2.1c-0.1-0.9-0.1-1.8-0.1-2.8v-22.8
		c0-0.8,0.3-1.4,0.8-1.9c0.5-0.5,1.2-0.8,1.9-0.8c0,0,0.1,0,0.4,0c0.3,0,0.4,0,0.4,0v-0.4h-3.5H230.4z"/>
	<path d="M278.6,247.4h-1.8h-0.1h-3.6v0.4c0,0,0.2,0,0.4,0s0.4,0,0.4,0c0.8,0,1.4,0.3,1.9,0.8c0.5,0.5,0.8,1.1,0.8,1.9v21.9
		l-24.1-25.7h-0.4c0,0,0.1,0.5,0.2,1.6c0.1,1.1,0.2,2.4,0.2,3.9v23c0,0.7-0.3,1.4-0.8,1.9c-0.5,0.5-1.2,0.8-1.9,0.8c0,0-0.2,0-0.4,0
		s-0.4,0-0.4,0v0.4h3.5h0.1h1.8h0.1h3.5v-0.4c0,0-0.1,0-0.4,0c-0.3,0-0.4,0-0.4,0c-0.7,0-1.4-0.3-1.9-0.8c-0.5-0.5-0.8-1.2-0.8-1.9
		h0l0-22l24.1,25.7h0.4c0,0,0-0.3-0.1-0.8c-0.1-0.6-0.1-1.3-0.2-2.1c-0.1-0.9-0.1-1.8-0.1-2.8v-22.8c0-0.8,0.3-1.4,0.8-1.9
		c0.5-0.5,1.2-0.8,1.9-0.8c0,0,0.1,0,0.4,0c0.3,0,0.4,0,0.4,0v-0.4h-3.5H278.6z"/>
	<path d="M292.7,247.4H290h-0.1h-3.4v0.4c0,0,0.1,0,0.3,0c0.2,0,0.3,0,0.3,0c0.8,0,1.4,0.3,2,0.8c0.6,0.5,0.8,1.2,0.9,2v24.5
		c0,0.8-0.3,1.4-0.9,2c-0.5,0.5-1.2,0.8-2,0.8c0,0-0.1,0-0.3,0c-0.2,0-0.3,0-0.3,0v0.4h3.4h0.1h2.6h0.1h3.4v-0.4c0,0-0.1,0-0.3,0
		c-0.2,0-0.3,0-0.3,0c-0.8,0-1.4-0.3-2-0.8c-0.5-0.6-0.8-1.2-0.8-2v-24.5c0-0.8,0.3-1.4,0.8-2c0.6-0.6,1.2-0.8,2-0.8
		c0,0,0.1,0,0.3,0c0.2,0,0.3,0,0.3,0v-0.4h-3.4H292.7z"/>
	<path d="M324.1,276.1L312,261.9l10.5-12.1c0.5-0.6,1.2-1.1,1.9-1.4c0.9-0.4,1.8-0.6,2.8-0.6h0.2v-0.4h-9.3v0.4h0.5
		c0.6,0,1,0.2,1.2,0.7c0.3,0.4,0.2,0.9-0.2,1.4L309.1,263c0,0,0.2,0.3,0.8,0.9c0.5,0.6,1.2,1.4,2,2.4c0.8,1,1.7,2,2.6,3.1
		c0.9,1.1,1.8,2.1,2.6,3.1c0.8,1,1.5,1.8,2,2.4c0.5,0.6,0.8,0.9,0.8,0.9c0.5,0.6,1.1,1.1,1.7,1.4c0.7,0.3,1.3,0.6,1.9,0.8
		c0.6,0.2,1.2,0.2,1.8,0.3c0.6,0,1,0,1.3,0h1.9v-0.4c-0.9,0-1.7-0.2-2.3-0.5C325.4,277.2,324.7,276.7,324.1,276.1z"/>
	<path d="M310.6,277.9c-0.8,0-1.4-0.3-2-0.8c-0.5-0.6-0.8-1.2-0.8-2v-24.5c0-0.8,0.3-1.4,0.8-2c0.6-0.6,1.2-0.8,2-0.8
		c0,0,0.1,0,0.3,0c0.2,0,0.3,0,0.3,0v-0.4h-3.4h-0.1H305h-0.1h-3.4v0.4c0,0,0.1,0,0.3,0c0.2,0,0.3,0,0.3,0c0.8,0,1.4,0.3,2,0.8
		c0.6,0.5,0.8,1.2,0.9,2v24.5c0,0.8-0.3,1.4-0.9,2c-0.5,0.5-1.2,0.8-2,0.8c0,0-0.1,0-0.3,0c-0.2,0-0.3,0-0.3,0v0.4h3.4h0.1h2.6h0.1
		h3.4v-0.4c0,0-0.1,0-0.3,0C310.6,277.9,310.6,277.9,310.6,277.9z"/>
	<path d="M353.8,248.8c-2.4-1.4-5.2-2-8.3-2c-3.1,0-5.9,0.7-8.3,2c-2.4,1.3-4.3,3.2-5.6,5.6c-1.3,2.4-2,5.2-2,8.5c0,3.2,0.7,6,2,8.5
		c1.4,2.4,3.2,4.3,5.6,5.7c2.4,1.3,5.1,2,8.3,2c3.2,0,5.9-0.7,8.3-2c2.4-1.3,4.2-3.2,5.6-5.7c1.3-2.4,2-5.2,2-8.5c0-3.2-0.7-6-2-8.5
		C358,252,356.2,250.2,353.8,248.8z M356.4,270.6c-1,2.2-2.5,3.9-4.4,5.2c-1.9,1.2-4,1.9-6.5,1.9c-2.5,0-4.6-0.6-6.5-1.9
		c-1.9-1.2-3.3-3-4.4-5.2c-1-2.2-1.5-4.8-1.5-7.7s0.5-5.5,1.5-7.7c1.1-2.2,2.5-3.9,4.4-5.2c1.9-1.2,4.1-1.9,6.5-1.9
		c2.5,0,4.7,0.6,6.5,1.9c1.9,1.2,3.3,3,4.4,5.2c1.1,2.2,1.6,4.8,1.6,7.7S357.5,268.4,356.4,270.6z"/>
	<path d="M394.2,247.4h-1.8h-0.1h-3.6v0.4c0,0,0.2,0,0.5,0c0.3,0,0.4,0,0.4,0c0.8,0,1.4,0.3,1.9,0.8c0.5,0.5,0.8,1.1,0.8,1.9v21.9
		l-24.1-25.7h-0.4c0,0,0.1,0.5,0.2,1.6c0.1,1.1,0.2,2.4,0.2,3.9v23c0,0.7-0.3,1.4-0.8,1.9c-0.5,0.5-1.2,0.8-1.9,0.8c0,0-0.2,0-0.4,0
		c-0.3,0-0.4,0-0.4,0v0.4h3.5h0.1h1.8h0.1h3.5v-0.4c0,0-0.1,0-0.4,0c-0.3,0-0.4,0-0.4,0c-0.7,0-1.4-0.3-1.9-0.8
		c-0.5-0.5-0.8-1.2-0.8-1.9h0l0-22l24.1,25.7h0.4c0,0,0-0.3-0.1-0.8c-0.1-0.6-0.1-1.3-0.2-2.1c-0.1-0.9-0.1-1.8-0.1-2.8v-22.8
		c0-0.8,0.3-1.4,0.8-1.9c0.5-0.5,1.2-0.8,1.9-0.8c0,0,0.1,0,0.4,0c0.3,0,0.4,0,0.4,0v-0.4h-3.5H394.2z"/>
	<path d="M426.3,248.8c-2.4-1.4-5.2-2-8.3-2c-3.1,0-5.9,0.7-8.3,2c-2.4,1.3-4.3,3.2-5.6,5.6c-1.3,2.4-2,5.2-2,8.5c0,3.2,0.7,6,2,8.5
		c1.4,2.4,3.2,4.3,5.6,5.7c2.4,1.3,5.1,2,8.3,2c3.2,0,5.9-0.7,8.3-2c2.4-1.3,4.2-3.2,5.6-5.7c1.4-2.4,2-5.2,2-8.5c0-3.2-0.7-6-2-8.5
		C430.5,252,428.7,250.2,426.3,248.8z M428.9,270.6c-1,2.2-2.5,3.9-4.4,5.2c-1.9,1.2-4,1.9-6.5,1.9c-2.5,0-4.7-0.6-6.5-1.9
		c-1.9-1.2-3.3-3-4.4-5.2c-1-2.2-1.5-4.8-1.5-7.7s0.5-5.5,1.5-7.7c1.1-2.2,2.5-3.9,4.4-5.2c1.9-1.2,4.1-1.9,6.5-1.9
		c2.5,0,4.7,0.6,6.5,1.9c1.9,1.2,3.3,3,4.4,5.2c1.1,2.2,1.6,4.8,1.6,7.7S430,268.4,428.9,270.6z"/>
	<path d="M458.8,247.4v0.4h0.4c0.5,0,1.1,0.2,1.5,0.7c0.4,0.4,0.5,1.1,0.2,1.8l-9.7,23.4l-9.3-23.2l0,0c-0.3-0.9-0.3-1.6,0.1-2
		c0.4-0.5,0.9-0.7,1.5-0.7h0.4v-0.4h-10v0.4c0,0,0.1,0,0.2,0s0.2,0,0.2,0c0.7,0,1.4,0.2,2.1,0.7c0.7,0.4,1.3,1.1,1.8,2.1l0,0
		l12.4,28.4h0.4c0-0.2,0.1-0.6,0.2-1.1c0.2-0.5,0.4-1,0.6-1.5c0.2-0.5,0.4-1,0.6-1.3c0.2-0.4,0.3-0.6,0.3-0.6l10.6-23.8l0,0
		c0.5-1,1.1-1.7,1.8-2.1c0.7-0.4,1.4-0.7,2.1-0.7c0,0,0.1,0,0.2,0c0.2,0,0.2,0,0.2,0v-0.4H458.8z"/>
</g>
<g>
	<path id="path_00000088851043412114782850000008743438648929815963_" d="M188.3,307.9c-1.1,0-2-0.3-2.6-1c-0.7-0.7-1-1.6-1-2.7
		c0-1.1,0.3-2,1-2.6c0.7-0.7,1.5-1,2.6-1c1.1,0,2,0.3,2.6,1c0.7,0.7,1,1.6,1,2.6c0,1.1-0.3,2-1,2.7
		C190.2,307.5,189.4,307.9,188.3,307.9z M188.3,299.1c-1.4,0-2.6,0.4-3.6,1.2c-0.9,0.8-1.4,1.9-1.6,3.2h-1.8v-4.2h-1.6v9.8h1.6V305
		h1.8c0.2,1.4,0.7,2.4,1.6,3.2c0.9,0.8,2.1,1.2,3.6,1.2c1.6,0,2.8-0.5,3.8-1.4c0.9-0.9,1.4-2.2,1.4-3.7c0-1.5-0.5-2.8-1.4-3.7
		C191.1,299.6,189.8,299.1,188.3,299.1z"/>
	<path id="path_00000177463164299668299750000000004502005715769262_" d="M198.9,307.7v-2.8h3.9c0.5,0,0.9,0.1,1.1,0.4
		c0.3,0.3,0.4,0.6,0.4,1c0,0.4-0.1,0.8-0.4,1c-0.3,0.3-0.7,0.4-1.1,0.4H198.9z M198.9,300.8h3.7c0.4,0,0.8,0.1,1,0.4
		c0.2,0.2,0.4,0.5,0.4,0.9c0,0.4-0.1,0.7-0.4,0.9c-0.2,0.2-0.6,0.4-1,0.4h-3.7V300.8z M203.9,304c1.1-0.3,1.7-1.1,1.7-2.2
		c0-0.7-0.3-1.3-0.8-1.8c-0.5-0.5-1.2-0.7-2.1-0.7h-5.3v9.8h5.5c1,0,1.7-0.2,2.3-0.7c0.6-0.5,0.9-1.1,0.9-1.9
		C206,305.2,205.3,304.3,203.9,304z"/>
	<path id="path_00000062151683439332687530000010586813949165857667_" d="M214.6,300.6c1,0,1.8,0.3,2.4,0.8c0.6,0.5,1,1.2,1.2,2.1
		h-7.1c0.1-0.9,0.5-1.6,1.2-2.1C212.9,300.9,213.7,300.6,214.6,300.6z M214.6,299.1c-1.6,0-2.8,0.5-3.8,1.4
		c-0.9,0.9-1.4,2.2-1.4,3.7c0,1.5,0.5,2.8,1.4,3.7c1,0.9,2.2,1.4,3.8,1.4c1.2,0,2.2-0.3,3-0.8c0.8-0.5,1.4-1.3,1.8-2.2h-1.8
		c-0.6,1-1.7,1.5-3.1,1.5c-1,0-1.8-0.3-2.4-0.8c-0.6-0.5-1-1.2-1.2-2.1h8.7l0-0.3l0-0.4c0-1.5-0.5-2.8-1.4-3.7
		C217.5,299.6,216.2,299.1,214.6,299.1z"/>
	<path id="path_00000165199715717393559140000017863185807140352387_" d="M232.4,309.2l-5.1-10.2l-5.1,10.2h1.7l3.4-6.9l3.4,6.9
		H232.4z"/>
	<path id="path_00000027593200088413885560000008004606123679753656_" d="M237.9,306.1v-6.7h-1.6v10.2l7.4-7.1v6.7h1.6v-10.2
		L237.9,306.1z"/>
	<path id="path_00000145025933730168818920000007230510884939785649_" d="M251.8,306.1c0.2,0.7,0.5,1.4,0.9,1.9
		c0.8,0.9,1.8,1.4,3.2,1.4c1.4,0,2.6-0.5,3.4-1.4c0.8-0.9,1.3-2.2,1.3-3.7c0-1.5-0.4-2.8-1.3-3.7c-0.9-0.9-2-1.4-3.4-1.4
		c-1.4,0-2.5,0.5-3.2,1.4c-0.4,0.5-0.7,1.1-0.9,1.9v-3.1h-1.6v13.7h1.6V306.1z M255.5,307.9c-1.1,0-2-0.3-2.6-1
		c-0.6-0.7-1-1.5-1-2.6c0-1.1,0.3-2,1-2.6c0.7-0.7,1.6-1,2.6-1c1.1,0,2,0.3,2.6,1c0.6,0.7,1,1.6,1,2.6c0,1.1-0.3,2-1,2.6
		C257.4,307.5,256.6,307.9,255.5,307.9z"/>
	<path id="path_00000144302358262539026120000004913445801563049376_" d="M272,299.3v4.1h-5.9v-4.1h-1.6v9.8h1.6v-4.2h5.9v4.2h1.6
		v-9.8H272z"/>
	<path id="path_00000044154927434385449550000004049139295794606232_" d="M287.1,309.2h1.6v-9.8h-1.6V309.2z M279.1,307.7v-3.5h3.1
		c0.5,0,1,0.2,1.3,0.5c0.3,0.3,0.5,0.7,0.5,1.3c0,0.5-0.2,1-0.5,1.3c-0.3,0.3-0.7,0.5-1.3,0.5H279.1z M279.1,302.7v-3.3h-1.6v9.8
		h4.7c1,0,1.8-0.3,2.4-0.9c0.6-0.6,0.9-1.4,0.9-2.4s-0.3-1.8-0.9-2.4c-0.6-0.6-1.4-0.9-2.4-0.9H279.1z"/>
	<path id="path_00000133508566806968311620000012799218215344709052_" d="M294.2,306.1v-6.7h-1.6v10.2l7.4-7.1v6.7h1.6v-10.2
		L294.2,306.1z M294.4,297.8h5.5v-1.4h-5.5V297.8z"/>
	<path id="path_00000031897687724229919890000002169583448118843792_" d="M313.9,307.7h-1.5v4.2h1.6v-2.7h8.6v2.7h1.6v-4.2h-1.5
		l-4.4-8.7L313.9,307.7z M318.2,302.3l2.7,5.4h-5.4L318.2,302.3z"/>
	<path id="path_00000027576936386816892650000016911699038963704729_" d="M331.8,307.9c-1.1,0-2-0.3-2.6-1c-0.7-0.7-1-1.5-1-2.6
		c0-1.1,0.3-2,1-2.6c0.7-0.7,1.5-1,2.6-1c1.1,0,2,0.3,2.6,1c0.7,0.7,1,1.6,1,2.6c0,1.1-0.3,2-1,2.6
		C333.7,307.5,332.9,307.9,331.8,307.9z M331.8,299.1c-1.6,0-2.8,0.5-3.8,1.4c-0.9,0.9-1.4,2.2-1.4,3.7c0,1.5,0.5,2.8,1.4,3.7
		c1,0.9,2.2,1.4,3.8,1.4c1.6,0,2.8-0.5,3.8-1.4c0.9-0.9,1.4-2.2,1.4-3.7c0-1.5-0.5-2.8-1.4-3.7C334.6,299.6,333.3,299.1,331.8,299.1
		z"/>
	<path id="path_00000182505652763282859640000017337277854552269244_" d="M351.6,298.9l-5.1,6.1l-5.1-6.1v10.2h1.6v-6l3.5,4.2
		l3.5-4.2v6h1.6V298.9z"/>
</g>
<path id="path_00000066475099010249174910000000202316246779739553_" class="st0" d="M245.8,107.8c3.5,3.5,12.6,10.9,16.5,6.7
	c3-3.2,4-12.2,4.3-17.1c-1.3-0.2-2.3-1.3-2.3-2.7c0-1.5,1.2-2.7,2.7-2.7c1.5,0,2.7,1.2,2.7,2.7c0,1.3-0.9,2.4-2.2,2.7
	c0.3,4.9,1.3,13.9,4.3,17.1c4,4.3,12.9-3.1,16.5-6.6c-0.4-0.4-0.6-0.9-0.6-1.4c0-1.1,0.9-2,2-2c1.1,0,2,0.9,2,2c0,1.1-0.9,2-2,2
	c-0.2,0-0.5,0-0.7-0.1c-2.2,3.4-4.3,7.5-6.5,13.4c-4.8-1.5-10.1-2.4-15.6-2.4c-5.4,0-10.8,0.9-15.5,2.4c-2.1-6-4.3-10.1-6.5-13.4
	c-0.2,0.1-0.4,0.1-0.7,0.1c-1.1,0-2-0.9-2-2s0.9-2,2-2c1.1,0,2,0.9,2,2C246.4,107,246.2,107.5,245.8,107.8z"/>
<path id="path_00000078013123386536177710000002102806021395023287_" class="st0" d="M288.9,145.7c-3.2,0.8-12-0.7-14.1-2.1
	c4-1.8,8.3-3.4,14.1-2.9c-1.4-5.4-0.1-11.3,1-14.7c3.1,4.9,3.7,11.3,3.6,14.8c8.1,7.4,13.1,18.3,13.1,29.2
	c0,22.6-18.3,40.2-40.9,40.2c-22.6,0-40.9-17.6-40.9-40.2c0-18.6,12.7-34,30.2-38.6c-4.4,7.5,6.4,12.9,13.4,8.2
	c-6.2,2.1-14.7-0.7-10.4-8.8c3.2-0.7,5.3-0.7,8.4-0.7c-2.9,1.4,2.2,5.1,4.9,0.3c0,0,7.9,1.3,10.4,0c-0.1,1.3-0.5,1.8-0.9,2.3
	c0.8,0,1.8-0.4,2.7-1.2c-0.2,1-0.7,1.7-1.4,2.4c-2.9,2.6-6,2.7-12.3,7c-2,1.3-7.5,3.7-9.8,4c-1.3,2.4-3.9,5.1-6.1,6.1
	c-0.3-1.6,0.9-4.6,1.4-5.7c-2.5,0-7.3,0.7-11.8,3.9c-8.4,5.8-11,11.5-11.3,20.8c0,18.7,14.9,33.9,33.7,33.9
	c18.7,0,33.8-15.2,33.8-33.9C299.1,159.5,295.2,153.1,288.9,145.7z M257.6,141.6c-4.6,2.9-8.4,2.6-13.2,2.6c3-3,7.8-4.7,10.1-5
	C255.6,140.6,256.4,141,257.6,141.6z M252.1,127.2c0,0-0.9-3-0.9-3.2c5.2-1.4,9.7-2.2,14.6-2.3c4.9,0,9.4,0.8,14.7,2.3
	c-0.1,0.2-1,3.2-1,3.2C270.7,124.3,260.8,124.3,252.1,127.2z"/>
<rect class="st1" width="539" height="429.7"/>
</svg>
