<svg width="756" height="755" viewBox="0 0 756 755" fill="none" xmlns="http://www.w3.org/2000/svg">
<path d="M335 2.20841C343 1.30865 349.9 0.408904 350.5 0.208959C351.1 0.00901449 364.6 -0.0909578 380.5 0.108987C399.6 0.308931 413.7 1.00874 422 2.10843C428.9 3.00818 440.6 4.80769 448 6.2073C455.4 7.60691 467.4 10.3062 474.5 12.2056C481.6 14.1051 492.7 17.4042 499 19.5036C505.3 21.703 515.7 25.502 522 28.1012C528.3 30.7005 540.9 36.5989 550 41.2976C559.1 45.8963 572.6 53.4942 580 58.2929C587.4 62.9916 598.5 70.5895 604.5 75.1882C610.5 79.687 620.5 87.6847 626.5 92.8833C632.5 98.0819 643.1 108.179 649.9 115.277C656.7 122.375 666.6 133.572 671.9 140.17C677.2 146.768 683.6 155.066 686.2 158.665C688.7 162.264 694.5 171.062 699 178.16C703.5 185.358 710.7 198.154 715 206.652C719.3 215.149 725 227.546 727.7 234.144C730.5 240.742 734.2 250.64 736 256.138C737.8 261.637 740.1 267.035 741 268.135C742 269.234 743.7 271.934 744.9 274.133C746 276.332 747.7 281.231 748.6 285.13C749.7 289.829 750 294.228 749.6 298.626C749.2 302.625 749.6 308.024 750.4 312.622C751.2 316.721 752.8 328.118 753.9 337.915C755.4 350.512 756 361.709 756 377.105C756 392.2 755.4 404.097 753.9 416.894C752.8 426.891 750.6 441.887 749 450.084C747.4 458.382 744.3 471.379 742.1 479.076C739.9 486.774 736.8 496.871 735.2 501.57C733.6 506.269 730.2 515.066 727.8 521.065C725.3 527.063 720.1 538.36 716.3 546.058C712.4 553.756 706.9 564.053 704 569.052C701 574.05 696 582.048 692.7 587.047C689.4 592.045 683.4 600.343 679.5 605.541C675.5 610.74 668 620.037 662.8 626.036C657.5 632.034 648.1 642.031 641.9 648.03C635.6 654.128 626.5 662.426 621.5 666.624C616.5 670.723 608.9 676.822 604.5 680.121C600.1 683.42 592.5 688.918 587.5 692.217C582.5 695.516 574.5 700.515 569.5 703.514C564.5 706.413 554.2 711.912 546.5 715.811C538.8 719.61 527.5 724.808 521.5 727.308C515.5 729.707 505.3 733.506 499 735.705C492.7 737.805 481.6 741.104 474.5 743.003C467.4 744.903 455.6 747.502 448.5 748.902C441.4 750.301 429 752.201 421 753.2C410.1 754.6 399.5 755 378 755C356.6 755 345.9 754.6 335 753.2C327 752.201 313.8 750.101 305.5 748.502C297.3 746.902 284.2 743.803 276.5 741.604C268.8 739.404 258.7 736.305 254 734.706C249.3 733.106 240.6 729.707 234.5 727.308C228.4 724.808 217.2 719.61 209.5 715.811C201.8 711.912 191.4 706.413 186.5 703.514C181.6 700.615 172.3 694.717 166 690.418C159.7 686.119 148.4 677.821 141 671.823C133.6 665.925 122 655.628 115.1 649.029C108.3 642.431 98.4 632.034 93.2 626.036C88 620.037 80 610.04 75.4 604.042C70.9 598.043 63.3 586.947 58.5 579.549C53.8 572.151 45.2 556.355 39.4 544.558C33.6 532.762 27.3 520.165 25.4 516.566C23.5 512.967 17.9 501.97 13 492.073C8.1 482.176 3.2 470.679 2 466.58C0.7 461.881 0 456.083 0 450.884C0 446.285 0.7 439.287 1.6 435.388C3.1 428.69 3.1 426.991 1.6 413.595C0.6 404.697 0 390.801 0 377.904C0 363.008 0.6 351.112 2.1 338.415C3.2 328.318 5.4 313.422 7 305.125C8.6 296.927 11.7 283.83 13.9 276.133C16.1 268.435 19.2 258.337 20.8 253.639C22.4 248.94 25.9 239.943 28.5 233.644C31.1 227.346 36.7 215.149 41 206.652C45.3 198.154 52.5 185.358 57 178.16C61.5 170.962 67.3 162.264 69.8 158.665C72.4 155.066 78.8 146.768 84.1 140.17C89.4 133.572 99.3 122.375 106.1 115.277C112.9 108.179 123.5 98.0819 129.5 92.8833C135.6 87.6847 145.4 79.687 151.5 75.1882C157.6 70.5895 168.6 62.9916 176 58.2929C183.4 53.4942 196.9 45.8963 206 41.2976C215.1 36.5989 227.7 30.7005 234 28.1012C240.3 25.502 249.3 22.1029 254 20.5033C258.7 18.9038 268.8 15.8046 276.5 13.6053C284.2 11.4059 297.2 8.30672 305.5 6.70716C313.7 5.1076 327 3.10816 335 2.20841Z" fill="#232323"/>
<path fill-rule="evenodd" clip-rule="evenodd" d="M366.3 34.7994C367.8 34.6994 369 35.1992 369 35.8991C369 36.5989 367.3 42.2973 361.5 59.6925L367.7 72.189C371.2 79.0871 373.7 84.8855 373.3 85.1854C373 85.4853 370.6 85.6853 363.5 85.7852L354.7 67.1904L351.7 76.6878C350 81.8863 348.2 86.4851 347.6 86.8849C347 87.2848 345 87.6847 343.2 87.6847C341.3 87.6847 340 87.1849 340 86.3851C340 85.7852 341.8 79.7869 347.7 61.1921L342.3 49.8952C339.4 43.7969 337 38.1984 337 37.6986C337 37.1987 339.1 36.6988 346.5 36.6988L350.2 44.8966C352.4 49.7952 354.3 52.7944 354.8 52.1945C355.3 51.6947 356.7 47.6958 358 43.497C359.4 38.8982 361 35.5991 361.9 35.3992C362.8 35.0993 364.7 34.8993 366.2 34.7994H366.3ZM401.4 35.6991C403.2 35.6991 409.8 36.199 416.1 36.7988C422.4 37.3986 427.7 37.9985 427.9 38.0984C428 38.0984 427.2 49.1954 426 62.6916C424.8 76.1879 423.6 87.4848 423.2 87.7847C422.9 88.0846 420.7 88.1846 418.3 88.0846C415.1 87.7847 414.1 87.2848 414.1 85.8852C414.2 84.9855 415 75.3881 416 64.6911C417 53.994 417.8 45.0965 417.7 44.9965C417.7 44.7966 415.2 44.3967 412.3 43.9968C409 43.497 407.1 43.5969 407.1 44.1968C407.1 44.6966 406.4 52.2945 405.6 60.8921C404.8 69.5897 403.7 77.7875 403.1 79.1871C402.5 80.5867 400.6 82.5861 398.8 83.6858C396.5 85.1854 394.2 85.6853 385.6 85.1854L385.1 77.6875H389.1C392.3 77.6875 393.3 77.2876 393.9 75.3881C394.4 74.1885 395.3 66.6905 396 58.6927C396.6 50.695 397.4 42.2973 397.7 39.8979C398.3 35.999 398.5 35.6991 401.4 35.6991V35.6991ZM316.5 39.798C317 39.698 317.6 40.6977 317.7 41.8974C317.9 43.197 318.1 44.9965 318.1 45.8963C318.1 47.2959 316.7 47.8957 311.8 48.7955C308.4 49.2953 304.9 50.1951 304.1 50.695C302.8 51.4947 302.8 52.1945 304.1 57.693C304.9 61.0921 306.1 63.6914 306.8 63.6914C307.5 63.6914 310.1 63.0915 312.6 62.3917C315.6 61.5919 317.4 61.492 318 62.1918C318.5 62.6916 319.1 64.3912 319.5 65.8908C320.1 68.59 319.9 68.69 313.8 70.0896C310.4 70.7894 307.7 71.7891 307.7 72.289C307.8 72.7888 308.4 75.988 309.2 79.487C310 82.886 311 85.5853 311.6 85.3854C312.2 85.1854 315.6 84.3856 319.3 83.5858C323 82.7861 326.2 82.3862 326.4 82.6861C326.6 82.986 327.1 84.4856 328 89.1843L315.3 91.9835C308.3 93.5831 302.5 94.6828 302.5 94.4828C302.4 94.2829 299.9 83.2859 291.6 45.6963L294.1 44.9965C295.5 44.6966 300.9 43.397 306.1 42.0973C311.3 40.8977 316 39.8979 316.5 39.798V39.798ZM451.9 41.8974L456.2 43.197C458.6 43.8968 460.7 44.7966 460.9 45.2965C461.1 45.7963 460.3 49.2953 459.2 53.1943C458.1 56.9932 457.1 60.9921 457.1 61.8919C457.1 63.1915 458.1 63.7913 460.6 64.1912C462.5 64.4911 465.6 65.9907 467.3 67.4903C469.1 69.0899 470.9 71.6891 471.2 73.2887C471.6 74.9882 471.1 79.0871 470 83.186C469 87.0849 467.1 91.1837 465.9 92.4834C464.6 93.6831 462 94.9827 460.1 95.3826C457.9 95.6825 453.7 95.0827 448.6 93.6831C444.2 92.4834 440.1 91.1837 439.5 90.8838C438.7 90.384 440.2 83.7858 444.2 69.6897C447.5 58.3928 450.5 47.5958 451 45.5964L451.9 41.8974ZM270.1 53.4942C270.6 54.3939 274.6 64.6911 279 76.3878C283.5 88.0846 287.1 98.0818 287.1 98.5817C287.1 99.1815 285.1 100.281 278.1 102.581L275.1 94.5828C273.5 90.184 272.1 86.1851 272.1 85.5853C272.1 85.0854 271.7 84.5856 271.1 84.5856C270.6 84.5856 269.9 84.9855 269.7 85.3854C269.5 85.7852 267.2 86.685 264.5 87.3848C260.9 88.3845 258.7 88.3845 256.4 87.6847C254.6 87.0849 252.3 85.3854 251.3 83.8858C250.2 82.3862 247.8 76.8877 242.3 62.0918L246.5 60.4922C248.7 59.5925 250.8 58.9927 251.1 59.0926C251.4 59.2926 253.1 63.3914 255 68.2901C256.8 73.0888 259.2 77.8874 260.2 78.8872C261.5 80.0868 262.8 80.3867 264.2 79.8869C265.4 79.487 266.8 78.3873 267.2 77.3876C267.8 76.1879 267 72.8888 264.6 66.5906C262.7 61.6919 261 56.9932 260.9 56.1934C260.8 55.3937 262.4 54.294 265 53.3942C268.9 52.0946 269.5 52.0946 270.1 53.4942V53.4942ZM485 51.5947C485.9 51.5947 488.1 52.0946 489.9 52.5944C492.2 53.3942 493 54.094 492.7 55.3937C492.4 56.3934 490.2 64.2912 487.6 73.0888C485.1 81.8863 482.1 92.1835 479.1 102.581L475.2 101.381C473.1 100.681 471 99.8813 470.7 99.5814C470.4 99.3815 473.1 88.4845 476.8 75.3881C481.9 57.1932 483.8 51.5947 485 51.5947ZM543.6 77.5875C545.3 77.5875 548.6 78.6872 551.1 79.8869C553.6 81.1865 556.6 83.7858 557.9 85.6853C559.1 87.5847 560.2 90.384 560.1 91.8836C560.1 93.3831 559.5 95.8824 558.7 97.382C558 98.8816 555.7 101.581 553.7 103.38C551.7 105.18 547.8 107.279 544.9 108.079C542 108.879 537.1 110.178 534.1 110.978C531.1 111.778 527.9 113.178 527.1 114.077C526.3 114.977 525.8 115.777 526.1 115.977C526.4 116.077 529.9 118.076 533.9 120.476C537.9 122.775 541.1 124.874 541.1 125.074C541.1 125.374 540.4 126.974 538.1 131.573L526.9 125.074C520.7 121.375 515.3 118.176 514.9 117.776C514.5 117.376 515.5 114.977 517.1 112.378C518.8 109.779 521.5 106.979 523.1 106.08C524.8 105.28 529.2 103.88 532.9 102.98C536.6 102.181 541.2 100.681 543.1 99.6814C545 98.6817 547.1 97.2821 547.8 96.4823C548.4 95.7825 549.4 93.883 550 92.3834C550.9 90.0841 550.8 89.2843 549.1 87.5847C548 86.485 546.4 85.5853 545.6 85.5853C544.8 85.5853 543.4 86.3851 542.6 87.3848C541.8 88.3845 540.6 89.9841 539.9 90.9838C538.7 92.7833 538.5 92.7833 535.1 91.0838C533.2 90.184 531.5 89.1843 531.4 88.9844C531.2 88.7844 532 86.9849 533.1 84.8855C534.3 82.7861 536.4 80.3867 537.9 79.387C539.4 78.4873 542 77.6875 543.6 77.5875V77.5875ZM198.6 87.6847C200.9 87.6847 203.5 88.3845 204.8 89.3842C205.9 90.384 211 97.2821 216 104.88C223.7 116.477 225.1 119.276 225.1 122.575C225.1 125.574 224.4 127.474 222.3 129.873C220.7 131.673 217.8 133.872 215.8 134.872C213.8 135.871 210.4 136.571 208.4 136.571C206.3 136.671 203.7 135.971 202.6 135.272C201.5 134.472 196.5 127.674 191.4 119.976C183.4 107.979 182.1 105.58 182.1 101.881C182.1 98.6817 182.8 96.8822 184.9 94.4828C186.4 92.7833 189.2 90.5839 191.1 89.5842C193 88.4845 196.4 87.6847 198.6 87.6847V87.6847ZM376.6 105.78C384.3 105.68 395.8 106.08 402.1 106.679C408.4 107.279 418.8 108.579 425.1 109.679C431.4 110.778 440.9 112.778 446.1 114.077C451.3 115.477 460.8 118.276 467.1 120.476C473.4 122.675 482.9 126.274 488.1 128.573C493.3 130.873 502.1 135.072 507.6 138.071C513.1 140.97 522.3 146.568 528.1 150.367C533.9 154.166 543.3 161.064 549.1 165.563C554.9 170.162 564.8 179.159 571.2 185.558C577.6 191.856 586.5 201.853 591.1 207.552C595.7 213.35 602.7 223.047 606.7 229.046C610.7 235.144 616.4 244.841 619.5 250.54C622.6 256.338 625.1 261.837 625.1 262.836C625.1 264.336 624.4 264.136 620.4 261.537C617.8 259.937 614.3 258.138 612.6 257.638C610.4 256.938 608.9 255.338 606.9 251.339C605.5 248.44 601.4 242.942 597.9 239.043C594.3 235.244 589.2 230.645 586.5 228.946C583.8 227.146 579.6 225.247 577.1 224.747C573.9 223.947 571.4 224.047 568.2 224.847C565.3 225.647 562.7 227.346 560.5 229.845C558 232.645 556.2 236.444 553.7 244.841C551.8 251.039 548.3 263.236 541.8 288.029L535.7 284.33C532.4 282.231 527.4 280.031 524.6 279.432C521.9 278.832 517.5 278.632 514.9 278.932C511.4 279.432 509.3 280.431 506.8 282.831C505 284.63 503.2 287.629 502.8 289.529C502.4 291.528 502.4 298.426 502.8 304.925C503.6 316.421 503.6 316.721 501.6 315.922C500.5 315.522 495.7 312.522 491 309.123C486.3 305.824 481.1 302.325 479.5 301.526C476.9 300.126 476.5 299.126 475.3 291.528C474.5 286.83 472.9 280.831 471.7 278.032C470.4 275.333 466.4 269.734 462.7 265.535C458.9 261.437 454.7 256.938 453.2 255.438C451.8 254.039 448.1 250.04 445 246.441C441.9 242.942 437.9 239.343 436 238.343C434.1 237.443 430.4 236.444 422.6 235.544L424.4 237.843C425.3 239.043 426.6 241.242 427.2 242.542C427.8 243.941 428.6 247.041 428.9 249.44C429.3 251.739 429.4 253.839 429.1 254.139C428.8 254.339 427.4 253.339 426 251.839C424.5 250.34 422.4 247.141 421.2 244.841C420.1 242.542 418.2 240.143 417.1 239.543C416 239.043 413.5 238.543 411.6 238.543C409.7 238.543 404.9 239.043 400.9 239.643C396.9 240.242 389.6 241.342 384.6 242.142C379.7 242.942 358.3 246.541 337.1 250.14C306.7 255.438 298.1 257.238 296.1 258.737C294.7 259.837 293.1 261.637 292.4 262.636C291.7 263.736 291.1 266.935 291 269.834C291 272.733 291.5 276.432 292.1 278.032C293.1 280.631 293 281.231 291.4 282.331C290.4 283.031 289.1 283.63 288.4 283.63C287.7 283.53 286.9 282.531 286.7 281.331C286.4 280.131 285.9 276.332 285.4 273.033C285 269.734 284.8 266.735 284.9 266.335C285 265.935 285.3 264.236 285.6 262.536C285.9 260.937 285.7 259.537 285.1 259.537C284.6 259.537 282 260.637 279.4 261.837C276.8 263.036 273.7 265.236 272.4 266.535C271.1 267.935 266.4 277.432 262 287.529C257.7 297.727 253.5 308.324 252.7 311.023C252 313.822 251.6 317.221 251.7 318.521C251.9 319.92 252.6 324.619 253.2 329.018C253.9 333.417 255.5 340.615 256.8 345.013C258.1 349.412 259.1 353.011 259.1 353.011C259.1 353.011 257.2 352.611 254.8 352.211C252.5 351.712 248.9 351.612 246.9 351.912C244.8 352.311 241.7 353.811 240.1 355.311C238.4 356.81 236.6 359.509 236.1 361.309C235.5 363.108 234.8 364.508 234.4 364.508C234 364.508 231.1 363.908 228.1 363.008C225.1 362.209 220.6 361.609 218.1 361.509C215.6 361.509 212 361.809 210.1 362.209C208 362.709 205.1 364.508 202.9 366.707C200.8 368.807 198.3 372.806 197.4 375.505C196.4 378.304 195.4 380.604 195.1 380.604C194.8 380.604 190.1 377.604 184.6 373.905C179.1 370.206 172.3 366.208 169.4 364.908C166.5 363.608 162.1 362.209 159.7 361.809C155.5 361.109 155.2 360.909 154.6 357.01C154.3 354.811 152.6 350.812 150.7 348.013C148.9 345.313 145 340.515 142 337.416C139.1 334.416 134.6 330.817 132.1 329.618C129.6 328.318 125.4 327.118 122.6 326.918C118.9 326.519 116.9 325.719 112 321.02L114.5 311.023C115.9 305.524 118.8 295.927 121 289.529C123.2 283.231 126.6 274.233 128.6 269.534C130.6 264.936 134.7 256.338 137.8 250.54C140.8 244.841 146.6 235.144 150.5 229.046C154.5 223.047 161.5 213.35 166.1 207.552C170.7 201.853 179.7 191.856 186.1 185.558C192.4 179.159 202.3 170.262 208.1 165.663C213.9 161.064 223.3 154.166 229.1 150.367C234.9 146.568 244.1 140.97 249.6 138.071C255.1 135.072 263.9 130.873 269.1 128.573C274.3 126.274 283.8 122.675 290.1 120.476C296.4 118.276 305.9 115.477 311.1 114.077C316.3 112.778 325.8 110.778 332.1 109.679C338.4 108.579 347.9 107.279 353.1 106.779C358.3 106.28 368.9 105.88 376.6 105.78V105.78ZM162.8 110.578C163 110.578 164 111.978 167.1 116.577L160.1 123.075L188.6 154.866L181.6 161.664L153.1 129.573L145.6 135.571L143.4 133.372C142.2 132.072 141.2 130.673 141.2 130.073C141.2 129.573 146 124.974 151.9 119.876C157.8 114.777 162.7 110.578 162.8 110.578V110.578ZM592.6 110.678C593.2 110.678 595.3 112.078 601.3 117.077L590.6 130.573C581 142.57 580 144.269 581.5 145.369C583 146.468 583 146.868 581.1 149.568C579.3 152.367 579 152.467 577.1 151.067C575.3 149.668 574.9 149.868 572.6 153.067C570.6 155.966 569.8 156.466 568.4 155.666C567.4 155.066 565.6 153.766 562.1 150.567L567.6 143.369L565.5 141.77C564.3 140.87 561.2 138.571 558.7 136.571C556.2 134.672 554.2 132.672 554.2 132.072C554.2 131.573 555 130.173 555.9 128.973C556.8 127.774 565.3 123.175 574.6 118.776C584 114.377 592.1 110.778 592.6 110.678V110.678ZM128.1 148.568C128.9 148.568 131.6 149.868 134.1 151.567C136.6 153.267 139.2 155.566 139.8 156.866C140.5 158.065 141.1 160.165 141.1 161.364C141.1 163.364 141.5 163.564 144.4 163.064C147 162.564 148.6 163.164 152.6 165.763C155.3 167.563 158.3 170.462 159.3 172.061C160.3 173.761 161.1 175.96 161.1 177.06C161.1 178.16 160.2 180.859 159.1 183.058C158 185.258 154.7 189.756 146.4 199.054L108.1 166.563L109.9 164.264C110.8 163.064 113.6 159.665 116.1 156.766C118.6 153.866 122 150.867 123.6 150.067C125.3 149.268 127.3 148.668 128.1 148.568ZM90.6 190.556C91.2 190.556 101.1 194.255 112.6 198.654C124.2 203.153 134.6 207.252 138.1 208.551L135.9 212.55C134.6 214.75 133.3 216.549 132.9 216.549C132.5 216.549 130.5 215.949 128.6 215.049C126.7 214.25 124.8 213.75 124.4 214.05C124 214.25 122.5 216.449 118.6 223.547L125.6 229.246L123.4 232.944C122.1 234.944 120.9 236.544 120.6 236.544C120.3 236.544 111.8 228.846 101.6 219.348C91.4 209.851 83 201.953 83.1 201.853C83.1 201.753 84.6 199.154 86.4 196.155C88.2 193.156 90.1 190.656 90.6 190.556ZM651.9 215.149C654 216.049 658.4 218.748 661.9 221.148C665.3 223.547 668.8 226.646 669.6 227.846C670.5 229.046 671.1 231.845 671.1 234.044C671.1 236.244 670.4 242.342 669.6 247.54C668.8 252.839 668.1 258.737 668.1 264.536L673.4 260.137C676.3 257.638 679.7 255.038 680.9 254.339C682.9 253.239 683.7 253.339 686.4 254.838C688.2 255.738 692.9 259.837 696.9 263.836C700.9 267.835 705 272.434 706.1 274.033C707.3 275.833 708.1 278.732 708.1 281.331C708.1 283.63 707.5 289.929 706.7 295.327C705.9 300.726 704.5 311.623 703.7 319.521C702.9 327.518 701.8 340.515 701.4 348.313C700.8 359.509 700.9 362.509 701.9 362.509C702.6 362.509 704.4 358.81 706 354.311C707.6 349.812 711.3 338.415 714.3 329.018C717.3 319.72 722 304.525 724.7 295.327C727.4 286.13 729.8 278.532 730.1 278.532C730.4 278.532 731.5 280.231 732.5 282.331C733.5 284.33 734.6 288.729 734.9 292.028C735.3 297.027 734.7 300.226 731.7 310.523C729.6 317.421 724.8 333.217 720.9 345.513C717 357.91 712.1 372.706 710 378.304C707.9 383.903 705.4 388.801 704.6 389.001C703.8 389.301 700.5 388.102 697.4 386.302C694.2 384.503 689 380.604 685.7 377.504C682.5 374.505 679.2 370.706 678.3 369.007C677.2 366.907 676.6 362.009 676.3 352.012C676.1 344.314 676.4 330.418 677 321.02C677.7 311.723 678.8 298.526 679.4 291.828C680.1 285.13 680.3 279.532 679.9 279.532C679.5 279.532 676.6 282.231 673.6 285.53C669.5 290.029 667.6 291.428 666.1 291.028C664.5 290.629 663.9 291.228 663.2 294.327C662.6 296.427 660.9 303.425 659.2 310.023C657.6 316.621 654.6 327.718 652.6 334.516C650.6 341.414 647.4 351.512 645.5 357.01C643.5 362.509 639.8 371.306 637.3 376.505C634.7 381.703 630.8 388.002 624.3 395H617.5C612.2 395 609.3 394.4 605.1 392.4C602.1 391.001 597.4 387.702 594.8 385.002C592.1 382.303 588.7 377.305 587.1 374.005C585.5 370.706 583.5 365.608 582.7 362.509C582 359.509 580.8 351.612 580.1 345.013C579.3 336.216 579.2 330.018 580 321.32C580.6 314.822 581.8 306.424 582.6 302.525C583.4 298.726 585.1 292.728 586.2 289.329C587.4 285.93 589.3 281.031 590.6 278.532C591.8 276.133 594.3 272.833 596 271.334C598.2 269.434 599.8 268.735 601.4 269.134C602.6 269.434 606.5 271.134 610 272.933C613.5 274.633 618 277.432 620 279.132C622 280.731 624.9 282.731 626.4 283.331C628.2 284.13 630 286.43 631.6 289.829C633 292.728 634.6 297.527 635.2 300.526C635.9 303.825 636.2 310.523 635.9 317.021C635.5 325.219 634.7 329.618 633 334.017C631.8 337.316 629.3 341.614 627.7 343.514C626 345.313 623.2 347.513 621.4 348.213C619.6 348.912 616.8 349.512 615.1 349.512C613.5 349.512 611.1 349.012 609.9 348.413C608.6 347.813 606.6 346.213 603.1 342.014V348.013C603.1 351.312 603.6 356.71 604.2 360.009C604.8 363.308 606.4 368.007 607.7 370.306C609 372.606 611.5 375.205 613.1 376.005C614.8 376.905 617 377.504 618.1 377.504C619.2 377.504 621.4 376.505 622.9 375.205C624.4 373.905 627.7 368.607 630.3 363.508C633 358.31 637.1 347.713 639.7 340.015C642.2 332.317 646.5 317.321 649.2 306.524C651.9 295.827 654.1 286.53 654.1 285.83C654.1 285.13 652 282.631 649.5 280.331C647 278.032 644 274.533 642.9 272.534C641.2 269.734 640.8 267.435 640.9 260.537C641 255.938 641.5 248.94 642.1 245.041C642.7 241.242 644.1 233.344 645.2 227.546C646.3 221.848 647.5 216.349 647.7 215.349C648.2 213.75 648.5 213.75 651.9 215.149V215.149ZM572.9 238.543C573.8 238.543 576.4 239.843 578.6 241.442C580.8 242.942 584.7 246.441 587.2 249.14C589.7 251.839 592.5 255.538 593.4 257.338C594.4 259.137 594.9 260.837 594.6 261.037C594.3 261.337 593.2 261.137 592.1 260.537C591 260.037 589.9 259.937 589.7 260.337C589.4 260.737 587.6 265.535 585.6 271.034C583.6 276.532 579.8 288.229 577.1 297.027C574.5 305.824 570.5 320.52 568.2 329.518C566 338.615 562.6 353.911 560.7 363.508C558.7 373.206 556.3 387.102 555.2 394.5C554.1 401.998 553 410.895 552.7 414.294C552.3 418.293 551.7 420.493 550.9 420.493C550.2 420.493 546.9 417.693 543.6 414.194C540.3 410.695 534.9 405.697 531.6 402.897C528.3 400.198 524.6 396.499 523.4 394.7C521.7 392.4 520.9 389.401 520.4 383.003C520 378.404 519.4 374.505 519.1 374.505C518.8 374.505 518.1 375.305 517.5 376.305C517 377.305 514.1 379.604 511.3 381.503C508.4 383.503 506.1 385.702 506.1 386.502C506.1 387.402 505 392.8 503.6 398.499C502.2 404.297 499.3 412.595 497.1 416.994C495 421.392 492.4 425.991 491.4 427.091C490.4 428.19 488.5 429.89 487.1 430.79C485.7 431.789 483 432.589 481.1 432.589C478.9 432.589 475.8 431.39 472.6 429.39C469.9 427.591 465.6 424.192 463.1 421.592C460.5 419.093 456.9 414.594 454.9 411.495C452.9 408.496 450.6 403.297 449.7 399.998C448.9 396.699 447.7 389.301 447.1 383.503C446.4 377.405 446.2 368.507 446.6 362.009C446.9 356.01 448.2 346.513 449.3 341.015C450.4 335.516 452.7 327.918 454.5 324.019C456.3 320.22 459 316.021 460.7 314.822C462.3 313.522 464.7 312.522 466.1 312.522C467.5 312.622 471.1 313.922 474.1 315.622C477.1 317.221 482.3 320.72 485.6 323.419C488.9 326.019 492.7 328.518 494.1 328.818C495.5 329.118 497.9 330.318 499.4 331.517C500.9 332.617 503.6 336.616 505.4 340.315C508.3 346.313 508.6 348.013 509.2 368.007L511.8 365.508C513.2 364.208 515.5 360.809 519.4 353.011L518.7 331.517C518.4 319.72 517.8 306.324 516.6 293.528H519.6C521.4 293.528 524.7 294.827 527.6 296.827C530.4 298.626 534 302.125 535.7 304.525C538.3 308.424 538.9 310.323 539.4 317.521C539.8 322.22 540.3 334.116 540.6 344.014C541 353.911 541.4 361.809 541.6 361.509C541.8 361.309 543.2 354.711 544.6 347.013C546 339.315 549 324.519 551.2 314.022C553.4 303.625 557.2 287.429 559.6 278.032C562 268.735 565.6 256.038 567.6 249.84C570.3 241.342 571.6 238.543 572.9 238.543V238.543ZM403.1 256.538C404.5 256.638 407.6 257.638 410 258.837C412.5 260.037 416.1 262.936 418 265.136C420 267.435 423.2 272.134 425.1 275.633C427.8 280.631 428.6 281.531 428.9 279.832C429 278.632 429.6 277.532 430.1 277.532C430.7 277.532 432.4 278.232 433.9 278.932C435.4 279.732 438.1 281.931 439.9 283.93C441.7 285.93 444 289.229 445 291.328C446 293.428 447.5 297.727 448.2 301.026C449.2 305.924 449.2 308.324 448.2 313.522C447.5 317.121 445.4 323.419 443.5 327.518C441.6 331.717 438.3 337.216 436.3 339.915C434.3 342.514 431.3 345.513 429.6 346.613C428 347.613 425.4 348.513 423.9 348.513C422.4 348.513 419.3 347.613 417.1 346.513C414.9 345.413 412.8 343.814 412.5 342.814C412.1 341.714 414.2 336.516 417.9 329.018C421.2 322.42 424.9 313.922 426.1 310.023C427.3 306.224 428 302.025 427.7 300.826C427.4 299.626 425.8 297.927 424.1 297.027C421.4 295.727 420.6 295.727 415.9 297.427C413 298.426 408.1 300.826 405.1 302.825C402.1 304.825 396.9 309.223 393.5 312.722C390.2 316.221 385.7 321.72 383.6 325.019C381.5 328.318 377.8 335.116 375.5 340.015C373.1 345.013 369.9 354.211 368.2 360.509C366.5 367.107 364.8 377.604 364.1 385.002C363.2 395 363.2 401.198 364.1 411.495C364.7 418.993 365.9 428.19 366.7 431.989C367.6 435.888 369.1 440.487 370.2 442.287C371.2 444.086 373 445.986 374.1 446.485C375.2 447.085 377.5 447.485 379.1 447.485C380.8 447.485 384.7 446.585 387.9 445.486C391 444.386 395.9 441.787 398.6 439.687C401.4 437.588 406 432.789 408.9 428.99C411.8 425.191 415.9 418.693 418 414.494C420.2 410.395 423.4 403.397 425.1 398.999C426.9 394.6 429.9 385.202 432 378.104C434 371.006 436.1 365.108 436.6 364.808C437.2 364.608 438.7 366.807 440.1 369.707C442.4 374.605 442.6 376.105 442.5 388.501C442.5 399.598 442 404.197 439.7 413.994C438.1 420.593 435.3 430.49 433.5 435.988C431.6 441.487 427.6 450.984 424.6 456.982C421.6 463.081 417 470.679 414.4 473.978C411.8 477.277 407.7 481.276 405.3 482.975C401.6 485.475 400.1 485.974 395.8 485.774C392.3 485.675 388.4 484.475 383.6 482.176C379.8 480.376 373 476.077 368.6 472.778C364.2 469.479 358.1 463.681 354.9 459.882C351.8 456.083 347.4 449.884 345.2 445.986C343 442.187 339.9 435.688 338.5 431.49C337.1 427.391 335.7 423.392 335.5 422.492C335.3 421.692 334.9 421.292 334.7 421.492C334.4 421.792 331.7 433.489 328.6 447.485C325.6 461.581 322.1 476.577 321 480.976C319.9 485.375 318.6 489.473 318.1 489.973C317.5 490.673 315.2 489.773 311.5 487.474C308.4 485.575 302.9 481.076 299.2 477.477C294.4 472.978 292.1 469.879 291.2 466.98C290.6 464.78 289.8 457.482 289.4 450.784C288.9 443.986 288.3 438.488 287.9 438.488C287.5 438.488 286.6 440.487 286.1 442.786C285.5 445.086 283.2 453.583 281 461.481C278.7 469.479 275.9 478.077 274.8 480.476C273.1 483.975 272.1 484.975 270.6 484.675C269.5 484.475 265.3 481.976 261.2 479.176C257.1 476.377 252.1 471.978 249.9 469.479C247.8 467.08 246.1 464.68 246.1 464.28C246.1 463.881 245.7 463.481 245.1 463.481C244.6 463.481 244.1 464.38 244.1 465.48C244.1 466.58 243.4 470.679 242.6 474.478C241.6 479.376 240.6 481.676 239.4 482.176C238.3 482.575 234.1 480.976 228.1 477.877C222.4 474.977 216.2 470.779 212.6 467.48C209.3 464.28 206.3 460.581 205.8 458.982C205.4 457.182 204.7 456.483 204.2 456.982C203.8 457.582 202.2 461.581 200.7 465.98C199.2 470.379 195.8 478.277 193.3 483.475C190.7 488.674 186.8 494.972 180.3 501.97H173.5C168.2 501.97 165.3 501.37 161.1 499.371C158.1 497.971 153.4 494.672 150.8 491.973C148.1 489.274 144.7 484.275 143.1 480.976C141.5 477.677 139.5 472.578 138.7 469.479C138 466.48 136.8 458.582 136.1 451.984C135.3 443.186 135.2 436.988 136 428.29C136.6 421.792 137.8 413.395 138.6 409.496C139.4 405.697 141.1 399.698 142.2 396.299C143.4 392.9 145.3 388.002 146.6 385.502C147.8 383.103 150.3 379.804 152 378.304C154.2 376.405 155.8 375.705 157.4 376.105C158.6 376.405 162.5 378.104 166 379.904C169.5 381.603 174 384.403 176 386.102C178 387.702 180.9 389.701 182.4 390.301C184.2 391.101 186 393.4 187.6 396.799C189 399.698 190.6 404.497 191.2 407.496C191.9 410.795 192.2 417.493 191.9 423.992C191.5 432.189 190.7 436.588 189 440.987C187.8 444.286 185.3 448.585 183.7 450.484C182 452.284 179.2 454.483 177.4 455.183C175.6 455.883 172.8 456.483 171.1 456.483C169.5 456.483 167.1 455.983 165.9 455.383C164.6 454.783 162.6 453.184 159.1 448.985V454.983C159.1 458.282 159.6 463.681 160.2 466.98C160.8 470.279 162.4 474.977 163.7 477.277C165 479.576 167.5 482.175 169.1 482.975C170.8 483.875 172.9 484.575 173.9 484.575C174.8 484.575 176.9 483.575 178.5 482.275C180.1 481.076 182.9 477.277 184.7 473.978C186.5 470.679 189.8 463.281 192 457.482C194.2 451.784 197.8 440.687 200 432.989C202.2 425.291 204.5 414.494 205.1 408.996C205.7 403.497 207.1 395.3 208.2 390.801C209.2 386.302 210.8 381.203 211.6 379.504C212.4 377.904 213.9 376.305 214.9 376.005C215.8 375.705 219.7 376.205 223.4 377.005C227.1 377.904 232.3 379.604 234.9 380.904C237.5 382.203 241.1 384.603 242.9 386.202C244.7 387.702 246.4 388.801 246.6 388.501C246.7 388.301 247.4 384.802 248 380.804C248.6 376.805 249.1 372.006 249.1 370.007C249.1 367.407 249.5 366.508 250.9 366.607C251.8 366.607 255.3 368.107 258.6 370.007C261.9 371.806 266.5 375.305 268.9 377.704C272.1 380.904 273.2 382.803 273.1 385.002C273.1 386.702 272.4 393.7 271.6 400.498C270.8 407.396 269.8 422.892 269.5 434.989C269 450.884 269.2 456.783 270 455.983C270.6 455.483 273.9 444.886 277.5 432.489C281 420.193 285.3 404.497 287 397.799C288.7 391.101 290.1 383.703 290.1 377.504L286.9 378.704C285.1 379.304 281.9 381.103 279.9 382.703C276.5 385.302 276 385.402 275.4 383.803C275.1 382.803 275.3 378.004 275.9 373.006C276.6 368.107 277.8 361.109 278.7 357.51C279.6 354.011 281.1 350.212 282 349.312C282.9 348.313 285.4 347.313 291.6 346.413L292.4 337.716C292.9 333.017 293.9 321.82 294.8 313.022C295.6 304.225 296.7 296.627 297.2 296.027C297.8 295.427 299.6 295.827 302.4 297.227C304.7 298.426 308.6 301.126 311 303.225C313.4 305.324 316.5 308.823 320.2 315.022L318.7 330.018C317.9 338.315 317.3 345.213 317.4 345.413C317.5 345.513 319.2 345.313 321.1 344.913C323 344.514 325.6 343.114 329.2 339.015V346.513C329.1 350.712 328.5 358.01 327.6 362.809C326.8 367.607 325.7 372.406 325.1 373.506C324.3 375.105 323.1 375.505 314.6 375.505L313.9 386.802C313.5 393 312.9 408.196 312.6 420.493C312.3 432.889 312.4 447.085 313.7 460.981L315.5 454.983C316.5 451.684 320.4 435.488 324.2 418.993C328 402.498 331.8 383.603 332.7 377.005C333.5 370.406 334.9 361.709 335.8 357.51C336.6 353.411 338.9 345.113 340.8 339.015C342.7 333.017 347.1 322.22 350.6 315.022C354 307.924 360.2 297.127 364.2 291.028C368.6 284.43 375.1 276.432 380.6 271.034C386.4 265.236 391.6 261.037 395.1 259.237C398.1 257.738 401.7 256.538 403.1 256.538V256.538ZM93 325.219C95 326.019 98 327.918 99.6 329.418C101.3 330.817 104.9 334.516 107.6 337.516C110.2 340.615 113.2 344.114 115.6 347.713L117.4 344.614C118.5 342.614 119.9 341.514 121.4 341.514C122.6 341.514 125.4 342.814 127.6 344.314C129.8 345.913 133.8 350.112 136.5 353.611C140.9 359.509 141.2 360.109 139.5 361.009C138.4 361.609 135.3 364.308 132.6 367.007C129.8 369.807 125.9 375.005 123.9 378.504C121.9 382.103 119.1 388.401 117.7 392.5C116.4 396.699 114.9 402.997 113.8 412.995L110.4 408.996C108.6 406.796 106 402.997 104.8 400.498C103.1 397.099 102.6 394.4 102.7 389.001C102.8 384.203 103.8 379.004 106 372.006C107.8 366.508 109.1 361.909 108.9 361.709C108.8 361.509 106.9 361.609 104.9 362.009C102.1 362.409 99.5 364.108 94.9 368.407C91.4 371.706 86.1 377.804 83 382.203C79.8 386.502 75 394.1 72.1 398.999C69.2 403.997 64.1 413.694 60.6 420.493C57.2 427.391 52.1 438.688 49.3 445.486C46.5 452.384 43.3 461.381 42.2 465.48C41 469.679 40.1 473.778 40.1 474.778C40.1 475.777 43.1 472.978 47.5 467.779C51.6 462.981 59.6 454.483 65.3 448.885C71 443.386 78.5 436.688 82.1 434.089C85.7 431.49 91.1 428.09 94.1 426.491C97.1 424.991 100.7 423.592 102.1 423.492C103.5 423.292 105.5 423.292 106.6 423.392C107.7 423.392 110.2 424.691 112.2 426.291C114.2 427.791 117.7 431.29 120 433.989C122.3 436.788 126.3 443.086 133.6 456.982V470.479C133.5 480.376 132.9 487.074 131.2 495.472C130 501.87 127.4 512.167 125.5 518.465C123.5 524.864 120 534.061 117.6 538.96C115.1 544.258 111.8 549.357 109.7 551.256C107.7 553.056 105.1 554.455 103.9 554.455C102.6 554.455 100.2 553.556 98.4 552.456C96.6 551.356 93.7 548.557 92 546.258C90.3 543.958 87.3 538.86 85.4 534.961C83.4 531.162 80.8 524.864 79.5 520.965C78.2 517.166 77.1 513.067 77.1 511.967C77.2 510.268 77.3 510.168 78.4 511.567C79.1 512.467 80.6 513.667 81.9 514.367C83.2 515.066 85.2 515.166 86.8 514.766C88.3 514.367 91.2 511.967 93.3 509.468C95.5 507.069 98.9 501.37 101.1 496.971C103.2 492.573 106.3 484.975 108.1 479.976C109.8 475.077 112.1 467.38 113.2 462.981C114.2 458.582 115.1 453.184 115.1 446.985L111.4 447.585C109.3 447.885 105.4 449.285 102.6 450.584C99.9 451.884 93.8 456.183 89.1 460.082C84.4 463.981 77.3 470.679 73.3 475.077C69.2 479.476 60.5 489.673 41.6 512.667L39.4 509.868C38.2 508.268 33.4 499.571 28.7 490.473C24.1 481.476 19.1 470.679 17.6 466.48C15.5 460.581 15 457.182 15 450.484C15 445.886 15.5 439.787 16.1 436.988C16.7 434.289 18 429.29 19 425.991C20.1 422.692 22.5 415.994 24.6 410.995C26.6 406.097 30.6 397.799 33.3 392.5C36.1 387.302 40.9 379.004 44 374.005C47 369.107 53.4 359.909 58.2 353.511C62.9 347.213 70.2 338.715 74.2 334.616C78.3 330.517 83.4 326.419 85.5 325.419C89 323.819 89.7 323.819 93 325.219V325.219ZM572.9 379.504C573.2 379.504 574.6 381.703 576 384.303C577.4 386.902 581 391.701 584 394.9C587.1 398.099 591.1 401.598 596.1 404.497L593.2 406.796C591.6 407.996 589.3 410.395 588 411.995C586.4 414.094 585.7 416.194 585.8 418.993C585.8 421.192 586.5 424.192 587.1 425.491C587.8 426.891 589.4 428.99 590.5 430.09C591.7 431.29 593.6 432.789 594.9 433.389C596.1 433.989 598.4 434.489 599.9 434.489C601.4 434.489 604.5 433.589 606.9 432.489C609.2 431.39 612 429.09 613.1 427.291C614.2 425.491 615.1 422.392 615.1 420.293C615.1 418.193 614.7 415.494 614.2 414.294C613.7 413.095 613.2 411.695 613 411.195C612.8 410.795 615.1 410.295 618.1 410.095C621.1 409.995 625.4 409.296 627.6 408.696C629.8 408.096 633.6 405.897 636.1 403.797C638.6 401.598 642.6 396.799 645.1 393.2C647.6 389.501 650 386.502 650.4 386.502C650.8 386.502 651.1 387.302 651.1 388.301C651.1 389.301 650.6 395.2 650.1 401.498C649.5 407.896 648.1 418.193 647 424.491C645.9 430.89 643.9 440.287 642.6 445.486C641.3 450.784 638.4 460.182 636.2 466.48C634.1 472.878 630.6 481.876 628.6 486.474C626.6 491.173 622.5 499.771 619.5 505.469C616.4 511.267 610.7 520.965 606.7 526.963C602.7 533.061 595.7 542.759 591.1 548.457C586.5 554.256 577.6 564.253 571.2 570.551C564.8 576.949 554.9 585.947 549.1 590.446C543.3 595.044 533.7 602.042 527.6 606.041C521.6 610.04 511.9 615.739 506.1 618.838C500.3 621.837 491.8 626.036 487.1 628.035C482.4 630.035 473.4 633.434 467.1 635.633C460.8 637.732 451.3 640.632 446.1 641.931C440.9 643.331 431.4 645.23 425.1 646.43C418.8 647.53 408.4 648.829 402.1 649.429C395.8 650.029 385.2 650.429 378.6 650.429C372 650.429 361.4 650.029 355.1 649.429C348.8 648.829 338.4 647.53 332.1 646.43C325.8 645.23 316.3 643.331 311.1 641.931C305.9 640.632 296.4 637.732 290.1 635.633C283.8 633.434 274.8 630.035 270.1 628.035C265.4 626.036 256.9 621.837 251.1 618.838C245.3 615.739 235.7 610.04 229.6 606.041C223.6 602.042 213.9 595.044 208.1 590.446C202.3 585.947 192.4 576.949 186 570.551C179.7 564.253 170.7 554.256 166.1 548.457C161.5 542.759 154.2 532.562 149.9 525.963C143.1 515.666 142.1 513.567 142.7 510.968C143.1 509.368 143.5 507.668 143.7 507.269C143.9 506.869 145.4 507.369 146.9 508.368C148.4 509.368 151.4 511.167 153.6 512.267C155.8 513.367 161.2 515.066 165.6 515.966C172.6 517.466 174.4 517.566 180.1 516.466C184.5 515.566 187.9 514.067 190.6 511.967C192.8 510.268 196.3 506.669 198.4 503.969C200.4 501.27 203.8 495.872 205.8 491.973C207.8 488.174 209.5 484.875 209.5 484.775C209.6 484.675 213.2 486.574 217.6 488.974C222 491.473 226.7 493.972 228.1 494.472C229.5 495.072 231.5 497.171 234.6 502.97L234.8 499.771C235 497.571 235.5 496.671 236.4 497.171C237.1 497.471 239.5 497.471 241.9 497.171C244.2 496.771 247.5 495.372 252.1 491.473L258.4 495.272C264.1 498.671 265.3 498.971 271.9 498.971C279.2 498.971 279.3 498.971 283 494.972C285.1 492.773 287 490.373 287.3 489.473C287.7 488.274 288.3 488.374 290.7 490.273C292.3 491.573 296.9 494.872 300.9 497.771C306.6 501.87 308.2 503.47 307.8 504.969C307.5 506.069 306 512.167 304.3 518.465C302.6 524.864 301 531.162 300.7 532.462C300.4 533.861 299.4 537.96 298.6 541.459C297.7 545.058 296.6 550.057 296 552.456C295.5 554.955 294.6 558.554 294.1 560.454C293.6 562.453 292.2 568.052 288.9 581.948L291.1 589.446C292.4 593.645 294.9 600.143 296.8 603.942C298.7 607.841 302.1 612.939 304.4 615.239C306.7 617.638 311.1 620.637 314.1 622.037C317.1 623.536 322.5 624.936 326.1 625.436C329.9 625.836 335.8 625.736 340.3 625.036C344.5 624.436 348.2 623.736 348.5 623.436C348.8 623.236 347.1 620.137 344.6 616.738C342.1 613.339 338.3 606.741 336 602.242C333.8 597.743 331.5 593.245 331 592.245C330.5 591.245 329.6 587.446 328.9 583.747C327.8 577.349 327.9 576.649 330.3 569.951C331.8 566.152 334.6 558.754 336.6 553.456C338.6 548.257 340.9 542.459 341.8 540.459C342.7 538.56 344.5 533.861 345.8 529.962C347.1 526.163 348.1 522.764 348.1 522.464C348.2 522.264 346.5 521.065 344.4 519.865C342.3 518.665 338 514.866 334.7 511.367C331.5 507.868 328.5 504.369 328 503.47C327.4 502.47 328 501.27 329.7 499.471C331 498.171 332.2 497.471 332.2 497.971C332.2 498.571 333.5 500.57 335.1 502.47C336.8 504.469 340.3 508.168 342.9 510.768C345.5 513.367 348.7 515.766 350.1 516.066C351.7 516.366 354.7 515.666 358.1 514.067C362.1 512.267 372.8 509.968 397.6 505.769C426.7 500.77 432.4 499.971 437.1 500.77C442.5 501.67 442.6 501.57 445.4 498.371C446.9 496.472 449.3 492.573 450.7 489.473C452.1 486.474 453.9 481.776 454.6 478.976C455.4 476.277 456.3 471.878 456.6 469.279C456.9 466.68 456.8 464.28 456.4 464.081C456 463.881 451.6 464.18 446.6 464.98C441.7 465.68 437.5 466.08 437.4 465.88C437.2 465.68 438 463.681 439.1 461.481C440.2 459.282 442 457.182 443.1 456.783C444.5 456.283 444.8 455.683 444.1 454.783C443.6 454.083 443.3 452.384 443.6 450.984C443.9 449.684 444.3 448.485 444.6 448.485C444.9 448.485 446.6 449.385 448.4 450.484C450.2 451.584 452.9 452.484 454.4 452.484C455.9 452.484 458 452.084 459.1 451.484C460.2 450.984 462.4 449.085 467 443.986L472.8 445.886C476.7 447.085 480.3 447.585 483.6 447.285C486.4 446.985 490.4 445.886 492.6 444.786C494.8 443.686 497.5 441.787 500.6 438.488L504.1 445.786C507 451.684 508.7 453.883 513.6 457.582C517.9 460.881 521.3 462.581 525.6 463.581C530.5 464.68 533.1 464.68 539.6 463.681C545.3 462.781 548.9 461.681 552.1 459.582C554.6 457.982 557.8 455.383 559.3 453.883C560.8 452.284 563.3 448.285 564.8 444.986C567.4 439.387 567.6 438.288 567.4 427.491C567.2 421.192 567.6 412.395 568.1 407.996C568.7 403.597 569.9 395.4 570.8 389.801C571.6 384.203 572.6 379.504 572.9 379.504V379.504ZM340.3 465.48C340.7 465.48 341.4 466.58 341.7 467.779C342 469.079 341.6 470.579 340.7 471.478C339.9 472.378 339.1 473.478 339.1 473.978C339.1 474.678 340.5 474.778 342.8 474.278C346.2 473.678 347.1 473.978 350.6 476.977C354.6 480.376 354.6 480.376 352.1 480.876C350.7 481.176 346.9 481.976 343.6 482.475C340.3 483.075 337.2 483.475 336.6 483.475C336 483.475 336.4 479.876 337.5 474.478C338.6 469.579 339.8 465.48 340.3 465.48V465.48ZM660.8 478.477C661.5 478.477 663.2 479.076 664.5 479.776C666.5 480.776 666.8 481.476 666.1 482.975C665.7 484.075 664.4 487.374 661.1 495.472L680.4 503.07C691 507.269 699.9 510.968 700.3 511.367C700.7 511.667 700.1 513.967 697.1 520.465L674.9 511.367C662.6 506.369 652.2 502.07 651.8 501.67C651.3 501.27 652.9 495.972 655.2 489.773C657.6 483.475 660.1 478.477 660.8 478.477V478.477ZM652.1 512.467C653.8 512.467 657.7 513.867 660.9 515.566C664 517.166 667.6 519.665 668.9 521.065C670.4 522.764 671.1 524.764 671.1 527.463C671.1 529.662 670.2 533.261 669.1 535.461C668 537.66 667.1 539.76 667.1 539.959C667.1 540.259 670.6 542.359 674.9 544.658C679.1 546.858 682.7 548.957 682.9 549.157C683 549.357 682.2 551.256 681.1 553.456C680 555.655 679 557.555 678.9 557.555C678.7 557.555 672.5 554.256 665.1 550.257C657.7 546.158 647.7 540.759 634.1 533.461L638.1 526.263C640.3 522.264 643.7 517.566 645.6 515.766C647.9 513.567 650.1 512.467 652.1 512.467V512.467ZM631.2 539.46C631.7 539.46 637.8 547.457 644.8 557.255C651.8 567.052 658.2 576.749 659.1 578.849C660.5 582.448 660.5 582.848 658.3 586.847C657.1 589.146 655.4 591.745 654.6 592.745C653.2 594.444 653 594.444 650.1 592.745C648.4 591.745 647.1 590.745 647.1 590.446C647.1 590.246 647.7 589.046 648.6 587.946C649.4 586.847 650.1 585.247 650.1 584.247C650.1 583.247 649.1 581.848 647.9 581.148C646.6 580.348 638 577.649 628.6 575.05C619.3 572.45 611.1 570.151 610.4 569.951C609.4 569.551 609.5 568.752 610.9 566.452C611.8 564.753 613.1 562.953 613.6 562.453C614.2 561.953 620.2 563.253 628.1 565.552C635.5 567.752 641.9 569.351 642.4 569.251C642.8 569.151 639.3 564.053 634.6 557.955C629.9 551.956 626 546.658 626 546.158C625.9 545.658 626.9 543.958 628.1 542.359C629.3 540.759 630.7 539.46 631.2 539.46V539.46ZM603.1 575.45C603.4 575.45 604.7 576.549 608.6 580.548L603.1 585.947C600.1 588.946 597.8 591.545 598.1 591.745C598.4 591.845 600.3 593.545 606 598.943L610.3 595.244C612.8 593.045 616.1 591.145 618.1 590.845C620 590.546 622.6 590.745 623.9 591.345C625.1 591.945 628 594.144 630.2 596.244C632.5 598.343 635 601.243 635.7 602.742C636.5 604.242 637.1 606.741 637.1 608.241C637.1 609.74 636.3 612.14 635.4 613.639C634.4 615.039 631.3 618.738 628.4 621.837C625.5 624.936 622.7 627.335 622.2 627.235C621.7 627.135 613.4 619.537 603.7 610.44C594 601.442 586.1 593.845 586.1 593.745C586.1 593.645 589.8 589.446 594.3 584.447C598.9 579.549 602.8 575.45 603.1 575.45V575.45ZM580.6 603.542C584.2 603.542 585.2 604.142 589.9 609.24C592.9 612.439 595.7 616.538 596.3 618.438C597.2 621.337 597 622.637 595.5 625.836C594.5 627.935 592.2 630.834 587.1 634.433L599.3 648.929L592.1 655.428L576.1 636.433C567.3 626.036 560.1 617.138 560.1 616.738C560.1 616.338 562.9 613.639 566.3 610.84C569.8 608.041 573.5 605.241 574.6 604.642C575.7 604.042 578.4 603.542 580.6 603.542ZM197 617.438C199.3 617.438 202.3 618.538 205.4 620.437C208 622.137 210.8 624.836 211.6 626.436C212.4 628.135 213.1 630.634 213.1 631.934C213.1 633.334 212.6 635.533 212 636.733C211.3 637.932 210.1 639.932 207.6 643.331L200.1 638.432L202.1 635.433C203.2 633.834 204.1 631.534 204.1 630.434C204.1 629.335 203 627.835 201.6 626.935C200.2 626.136 198.5 625.836 197.7 626.236C196.9 626.635 192.7 631.934 188.4 637.932C184 644.031 180 649.829 179.3 650.929C178.5 652.528 178.5 653.428 179.7 655.228C180.5 656.527 182.1 657.427 183.6 657.427C185.3 657.427 187 656.327 191.8 649.929L199.1 654.428L197.4 657.527C196.4 659.226 194.4 661.726 192.9 663.025C191.4 664.425 188.9 665.725 187.4 666.025C185.8 666.424 182.9 666.025 180.6 665.125C178.4 664.325 175.2 662.026 173.4 660.026C171.6 658.027 169.8 655.228 169.5 653.728C169.2 652.228 169.1 650.029 169.5 648.929C169.8 647.83 174 641.331 178.9 634.433C183.8 627.635 189 620.937 190.6 619.737C192.3 618.338 194.8 617.438 197 617.438V617.438ZM552.4 621.537C552.8 621.537 553.8 622.637 554.6 623.936C555.4 625.336 555.9 626.935 555.6 627.435C555.3 628.035 552.4 630.035 549.1 631.934C545.8 633.933 543.1 635.833 543.1 636.233C543.1 636.633 544.7 639.332 546.6 642.231C548.8 645.53 550.6 647.23 551.4 646.83C552.1 646.43 554.5 644.83 561.1 640.432L563.4 643.531C564.8 645.63 565.2 646.93 564.5 647.33C563.9 647.73 561.4 649.329 554.3 653.928L558 659.726C560 662.925 562.1 665.425 562.6 665.425C563.2 665.425 565.2 664.425 567.1 663.125C569 661.826 571.9 660.026 573.4 659.127C576.1 657.527 576.1 657.527 580.1 663.425L569.4 670.423C563.5 674.222 558.4 677.221 558.1 677.022C557.8 676.822 551.8 667.824 544.7 656.827C537.6 645.93 531.7 636.433 531.7 635.733C531.6 635.133 536.1 631.634 541.6 628.035C547.1 624.436 552 621.537 552.4 621.537V621.537ZM231.9 637.532C232.3 637.532 235.1 639.032 243.8 643.931L236.2 667.924C232 681.02 228.2 691.917 227.6 692.117C227.1 692.317 225.2 691.518 223.4 690.418C220.5 688.718 220.2 688.118 220.7 685.219C221 683.42 221.4 681.32 221.5 680.621C221.5 679.821 219.6 678.021 212.5 673.922L209.4 677.421C206.4 680.92 206.3 680.92 203.1 679.421C201.3 678.621 199.7 677.621 199.5 677.221C199.3 676.822 206.3 667.724 215.2 656.927C224 646.23 231.5 637.532 231.9 637.532V637.532ZM524.9 638.532C525 638.532 525.8 639.832 526.6 641.431C527.4 643.131 527.9 644.83 527.7 645.23C527.5 645.63 525.5 646.83 519.2 649.929L528.7 668.724C533.9 679.021 538.1 687.819 538.1 688.218C538.2 688.618 536.2 689.718 533.9 690.718C531.5 691.617 529.6 692.317 529.5 692.217C529.4 692.017 525.2 683.62 520.1 673.423C515 663.325 510.7 654.828 510.5 654.728C510.3 654.628 508.3 655.328 506.1 656.427C503.9 657.527 501.9 658.327 501.7 658.227C501.5 658.127 500.7 656.627 498.3 651.928L511.4 645.23C518.7 641.631 524.7 638.532 524.9 638.532V638.532ZM259.1 652.028C259.9 652.428 261.8 653.128 263.3 653.628C264.8 654.228 266.1 655.028 266.1 655.527C266.1 656.027 264.5 660.626 262.6 665.725C260.6 670.823 259.4 675.222 259.8 675.522C260.3 675.922 262.4 676.822 268.6 679.321L272.4 669.424C274.4 663.925 276.7 659.526 277.4 659.526C278.1 659.526 280.2 660.326 285.8 662.925L276.7 686.219C271.7 699.015 267.2 709.413 266.6 709.413C266.1 709.313 263.9 708.513 258.2 705.914L266.1 686.419L262.9 685.019C261.1 684.319 258.8 683.52 257.7 683.32C256.1 683.02 255.1 684.619 252 692.417C249.6 698.716 247.8 701.815 247 701.615C246.2 701.415 244.2 700.615 239.1 698.416L243 688.718C245.1 683.32 249.3 672.723 252.2 665.225C256.4 654.528 258 651.629 259.1 652.028V652.028ZM491.1 655.527C491.9 655.427 493.3 656.727 494.1 658.427C494.9 660.126 495.4 661.626 495.1 661.826C494.8 662.026 491.7 663.225 488.1 664.425C484.5 665.725 481.3 667.024 480.8 667.324C480.4 667.724 481.1 670.623 482.3 673.922C483.5 677.221 484.5 680.021 484.5 680.221C484.6 680.321 487 679.521 489.9 678.421C492.8 677.321 495.5 676.422 495.9 676.422C496.3 676.422 497.2 677.521 497.9 678.921C498.6 680.321 499.1 681.92 499.1 682.42C499.1 683.02 496.8 684.22 493.9 685.119C491 686.019 488.3 686.919 487.9 687.119C487.5 687.319 488 690.118 489.1 693.417C490.2 696.716 491.7 699.715 492.4 700.015C493.1 700.315 496.7 699.415 507.1 695.416L508.5 698.716C509.3 700.515 509.7 702.215 509.3 702.614C508.9 702.914 503.4 705.014 497.1 707.313C490.8 709.513 485.5 711.212 485.4 711.112C485.3 711.012 481.3 700.415 476.7 687.419C472 674.522 468.3 663.925 468.4 663.825C468.5 663.725 473.3 661.826 479.1 659.626C484.9 657.427 490.3 655.627 491.1 655.527V655.527ZM295.4 665.425C296.1 665.525 298.3 665.925 304.1 667.424L301.7 676.722C300.3 681.82 299.5 686.219 299.8 686.419C300.1 686.719 303.7 683.22 315.6 670.323L325.6 672.723L307 690.918L309.6 704.414C311.1 711.912 312.4 718.71 312.7 719.71C312.9 720.709 312.6 721.409 311.9 721.409C311.2 721.409 309 721.009 307.1 720.509C303.7 719.51 303.6 719.41 301.8 710.712C300.8 705.914 299.8 701.215 299.6 700.215C299.1 698.516 299 698.516 297.1 700.215C295.8 701.315 294.6 704.614 292.1 716.411L288.9 715.911C287.1 715.611 284.8 715.111 283.9 714.911C282.8 714.611 282.3 713.811 282.6 712.712C282.9 711.712 285.4 701.515 288.2 689.918C290.9 678.421 293.5 668.224 293.7 667.224C294 666.225 294.8 665.425 295.4 665.425V665.425ZM459.4 665.525C459.8 665.525 460.1 665.825 460.1 666.225C460.1 666.624 462.4 676.822 465.1 688.918C467.8 701.015 470.3 711.812 470.6 712.912C471 714.611 470.3 715.111 466.3 716.111C463.7 716.811 461.5 717.21 461.4 717.11C461.3 717.01 459.1 707.713 456.5 696.416C454 685.219 451.8 675.822 451.7 675.622C451.7 675.422 449.3 675.822 446.4 676.422C441.6 677.321 441.2 677.721 441.7 679.721C442 680.92 444.1 690.418 446.4 700.815C448.7 711.112 450.4 719.71 450.1 719.91C449.8 720.11 447.7 720.51 445.4 720.809C441.5 721.409 441.1 721.209 440.6 719.21C440.3 718.01 437.9 707.013 435.1 694.917C432.4 682.82 430.5 672.723 430.8 672.423C431.1 672.223 437.5 670.523 445 668.824C452.5 667.124 459 665.625 459.4 665.525V665.525ZM332.6 672.823C334.2 673.123 340.7 673.922 358.2 675.922L357.6 682.92L347.6 682.32L342.6 723.909L337.9 724.208C333.3 724.408 333.1 724.308 333.2 721.709C333.2 720.21 334.2 710.612 335.5 700.415C337 687.619 337.4 681.72 336.7 681.22C336.1 680.82 333.9 680.521 331.9 680.521C328.5 680.421 328.1 680.221 328.1 677.921C328.1 676.622 328.4 674.722 328.8 673.922C329.3 672.723 330.4 672.423 332.6 672.823V672.823ZM399.4 697.616C403.1 697.416 403.1 697.516 403.1 705.414H386.1V701.915C386.1 698.516 386.2 698.416 390.9 698.116C393.5 697.916 397.3 697.716 399.4 697.616Z" fill="white"/>
<path d="M450.6 83.9859C450.9 82.3863 451.8 78.7873 452.6 75.9881C453.7 72.2891 454.6 70.6895 455.8 70.6895C456.7 70.5896 458.6 71.3894 462.2 74.1886L460.4 80.5868C459.3 84.0858 458 87.185 457.5 87.4849C456.9 87.6848 455 87.6848 453.2 87.285C450.3 86.7851 450.1 86.3852 450.6 83.9859Z" fill="#232323"/>
<path d="M190.9 100.481C190.8 99.5815 191.8 98.082 193.1 97.1822C194.4 96.3824 195.7 95.6826 196 95.6826C196.3 95.6826 197.2 96.1825 198.2 96.8823C199.1 97.5821 203.5 103.68 207.9 110.479C212.4 117.177 216 123.275 216 123.975C216.1 124.575 215.3 125.974 214.3 126.974C213.3 127.974 211.6 128.673 210.5 128.474C209.2 128.274 205.4 123.575 199.7 115.177C194.9 107.979 190.9 101.381 190.9 100.481Z" fill="#232323"/>
<path d="M565.1 132.173L572.8 128.474C577 126.474 580.8 124.775 581.2 124.775C581.7 124.675 582 124.775 582 124.975C582.1 125.074 579.9 127.974 572.5 137.571L565.1 132.173Z" fill="#232323"/>
<path d="M485 167.163C485.6 160.565 486.2 154.366 486.3 153.467C486.4 152.567 486.8 152.067 487.3 152.467C487.7 152.867 490.1 157.865 492.6 163.664C495.1 169.462 497.7 174.761 498.3 175.461C499 176.16 501.3 176.96 503.5 177.26C505.7 177.56 510.2 177.86 513.5 178.06C516.8 178.26 521.3 178.46 527.5 178.66L524.5 180.459C522.9 181.459 516.9 184.258 511.2 186.657C503.2 190.156 500.9 191.556 500.9 193.156C500.9 194.255 500.7 196.055 500.5 197.155C500.3 198.254 499.9 202.053 499.6 205.652C499.4 209.251 499.1 213.75 499 219.148L497 216.149C495.9 214.45 493.9 210.251 492.4 206.652C491 203.053 489.1 198.654 488.1 196.955C486.8 194.255 485.8 193.556 482.5 193.156C480.3 192.956 474.2 192.456 469 192.156C463.8 191.856 459.4 191.556 459.2 191.356C459.1 191.256 459.5 190.656 460.2 190.057C460.9 189.557 465.4 187.357 470.2 185.358C475.1 183.358 479.3 181.659 479.7 181.659C480.2 181.659 481.3 181.059 482.2 180.359C483.5 179.459 484.1 176.36 485 167.163Z" fill="#232323"/>
<path d="M119.9 163.164L122.1 160.965C123.3 159.665 125.3 158.665 126.4 158.665C127.6 158.665 129.8 159.965 134.5 164.764L132.5 168.263C131.4 170.162 130.3 171.762 130 171.762C129.7 171.762 127.3 169.762 119.9 163.164Z" fill="#232323"/>
<path d="M238.1 166.063C239.2 164.364 241.1 162.464 242.3 161.864C243.5 161.264 246.3 160.765 248.5 160.765C251.4 160.765 253.4 161.464 255.8 163.464C258.4 165.563 259.3 167.163 259.7 170.662C260.1 173.761 259.7 176.16 258.6 178.46C257.7 180.159 255.6 182.359 254 183.158C252.3 183.958 249.5 184.658 247.7 184.658C245.8 184.658 243 183.558 240.7 181.859C238.6 180.359 236.6 178.06 236.1 176.66C235.7 175.261 235.5 173.061 235.7 171.662C235.9 170.262 237 167.763 238.1 166.063Z" fill="#232323"/>
<path d="M341.5 167.763C353.6 165.663 366.6 163.464 370.5 162.964C374.3 162.464 378.8 162.164 380.5 162.164C382.1 162.264 385.5 163.364 388 164.564C390.5 165.763 393.4 167.463 394.5 168.462C395.6 169.362 397.7 171.762 399.1 173.661C400.5 175.561 403.1 180.359 405 184.158C406.8 187.957 409.2 193.156 410.3 195.655C411.4 198.154 413.3 202.853 414.6 206.152C415.9 209.451 417 213.25 417 214.65C417 216.049 416.1 218.949 415.1 221.148C414.1 223.347 412.2 226.246 410.8 227.646C409.1 229.246 405.4 230.945 399.9 232.345C395.3 233.544 371.7 237.943 347.5 242.142C323.3 246.241 301.7 249.64 299.5 249.64C297.3 249.64 293.8 248.74 291.7 247.641C289.7 246.541 286.9 244.441 285.5 242.942C284.1 241.342 282.5 238.343 281.9 236.144C281.3 233.644 281.1 228.646 281.5 223.147C281.8 218.249 282.4 211.95 282.6 209.151C282.9 206.452 283.3 203.053 283.4 201.653C283.6 200.254 284.1 197.554 284.5 195.655C284.9 193.755 286.5 190.356 288 188.157C289.5 185.958 292.6 182.459 294.9 180.459C297.1 178.36 300 176.26 301.2 175.76C302.5 175.261 307.1 174.161 311.5 173.261C315.9 172.461 329.4 169.962 341.5 167.763Z" fill="#232323"/>
<path d="M135.5 176.86L137.9 174.261C139.2 172.861 141.2 171.662 142.2 171.662C143.2 171.662 145.6 172.861 147.5 174.461C149.5 175.96 151.3 177.86 151.6 178.66C151.8 179.459 151 181.659 149.8 183.358C148.5 185.158 147.3 186.657 147 186.657C146.7 186.557 144 184.358 135.5 176.86Z" fill="#232323"/>
<path d="M105.2 211.551C101.5 208.152 98.0002 204.952 97.5002 204.552C96.9002 203.953 97.0002 203.653 98.0002 203.653C98.8002 203.653 103.1 205.052 107.5 206.752C111.9 208.551 115.9 210.251 116.3 210.551C116.8 210.851 116.4 212.65 115.6 214.45C114.7 216.149 113.5 217.649 113 217.649C112.4 217.649 109 214.85 105.2 211.551Z" fill="#232323"/>
<path d="M197.1 206.952C198.4 206.352 200.2 205.552 201 205.352C201.8 205.052 205 204.752 208 204.752C211.8 204.652 214.5 205.252 216.7 206.652C218.5 207.752 220.9 209.451 221.9 210.451C223 211.351 224.5 213.75 225.3 215.649C226.2 217.549 227.1 221.048 227.4 223.447C227.9 226.646 227.4 228.946 225.5 233.145C223.7 237.043 221.8 239.443 218.8 241.442C215.5 243.542 213.2 244.242 208.1 244.441C202.1 244.741 201 244.441 196.7 241.742C193.6 239.643 191.3 237.243 190 234.444C188.7 231.645 188 227.946 188 223.647C187.9 217.749 188.3 216.749 191.3 212.65C193.2 210.151 195.8 207.652 197.1 206.952Z" fill="#232323"/>
<path d="M535.4 230.145C535.8 228.446 536 225.247 536 222.947C536 220.548 536.2 218.649 536.5 218.649C536.8 218.649 537.9 220.548 539 222.947C540.1 225.247 541 227.546 541 228.146C540.9 228.746 541.5 229.746 542.2 230.345C542.9 231.045 546.2 231.845 549.5 232.045C552.8 232.345 555.6 232.645 555.7 232.845C555.8 233.045 553.2 234.444 549.9 236.144C544.6 238.843 543.9 239.443 543.9 242.142C543.9 243.842 543.5 246.941 542.4 253.139L540.6 249.14C539.6 246.941 538 244.042 537 242.642C536 241.142 534.1 240.043 532.4 239.843C530.8 239.743 528.1 239.243 523.5 238.043L529.2 235.644C533.9 233.544 534.9 232.645 535.4 230.145Z" fill="#232323"/>
<path d="M159.2 246.641C159.9 245.341 162 243.142 163.9 241.942C166.6 240.143 168.1 239.743 170.9 240.243C172.9 240.643 175.4 241.342 176.5 241.942C177.6 242.542 179.3 243.942 180.2 245.041C181.3 246.341 181.9 248.94 182 251.939C182 255.738 181.5 257.238 179.2 259.737C177.7 261.337 174.9 263.136 173 263.536C171.1 263.936 168.1 263.936 166.5 263.536C164.8 263.136 162.5 261.737 161.2 260.437C159.8 258.937 158.7 256.538 158.4 253.639C158.1 250.94 158.4 248.14 159.2 246.641Z" fill="#232323"/>
<path d="M197.9 258.138C199.3 257.138 201.8 255.938 203.5 255.538C205.1 255.138 208.6 254.839 211.2 254.739C213.9 254.639 218.3 255.538 221.2 256.638C224.1 257.838 227.8 260.137 229.3 261.937C230.8 263.736 233 266.835 234 268.935C235.3 271.334 236 274.733 236.1 278.932C236.1 282.331 235.6 286.53 235 288.129C234.3 289.729 232.4 292.928 230.7 295.027C228.9 297.127 225.2 300.026 222.5 301.426C218.9 303.325 215.9 304.025 212 304.025C208.1 303.925 205.1 303.225 201.5 301.426C198.7 299.926 195.1 297.527 193.5 295.927C191.8 294.328 189.7 291.229 188.6 289.029C187.4 286.43 186.8 283.231 186.9 279.432C186.9 276.233 187.7 271.934 188.6 269.934C189.5 267.835 191.3 264.736 192.7 263.136C194.2 261.537 196.5 259.237 197.9 258.138Z" fill="#232323"/>
<path d="M610.3 301.126C611.6 298.426 613.9 294.428 615.4 292.428C616.9 290.329 619.1 288.629 620.1 288.629C621.8 288.629 622 289.429 622 294.927C622 298.327 621.5 304.225 621 308.124C620.4 312.023 619 318.021 617.8 321.62C616.6 325.319 614.5 329.318 612.8 330.918C610.7 332.917 609.2 333.517 603.5 333.117L603.8 327.119C604 323.819 605.1 317.721 606.1 313.622C607.2 309.523 609.1 303.925 610.3 301.126Z" fill="#232323"/>
<path d="M480 350.112C480 348.513 481.2 344.514 482.6 341.415C484.1 338.216 485.6 335.616 486.1 335.616C486.6 335.616 488.1 336.616 489.3 337.916C490.8 339.215 492.2 342.314 492.9 345.613C493.7 349.412 493.8 354.211 492.4 371.106L489 367.607C487.1 365.608 484.3 361.609 482.7 358.61C481.2 355.611 480 351.712 480 350.112Z" fill="#232323"/>
<path d="M473.5 391.601C473.5 383.603 473.9 374.505 474.3 371.406C474.8 368.207 475.3 365.608 475.6 365.608C475.8 365.608 477.5 368.007 479.3 370.906C481.1 373.706 484.6 377.805 491.5 383.703L489.2 394.4C487.9 400.298 486 407.396 484.9 410.096C483.9 412.895 481.9 416.194 480.5 417.594C478.3 419.693 477.8 419.893 477 418.593C476.5 417.793 475.5 414.594 474.8 411.595C474.1 408.496 473.5 399.798 473.5 391.601Z" fill="#232323"/>
<path d="M234.5 403.098C235.3 400.398 236.8 397.299 237.7 396.399C238.6 395.4 239.9 394.6 240.6 394.6C241.4 394.6 242.7 394.8 243.5 395.1C244.3 395.4 245 396.499 245 397.599C245 398.699 243.9 405.797 242.5 413.395C241.1 420.893 238.6 433.389 237 441.087C235.4 448.785 233.3 457.482 232.5 460.382C231.7 463.181 230.4 465.58 229.8 465.58C228.8 465.58 228.6 461.381 229.2 445.886C229.6 434.989 230.6 421.992 231.4 417.094C232.2 412.195 233.6 405.897 234.5 403.098Z" fill="#232323"/>
<path d="M166.3 408.096C167.6 405.397 169.9 401.398 171.4 399.399C172.9 397.299 175.1 395.6 176.1 395.6C177.8 395.6 178 396.399 178 401.898C178 405.297 177.5 411.195 177 415.094C176.4 418.993 175 424.991 173.8 428.59C172.6 432.289 170.5 436.288 168.8 437.888C166.7 439.887 165.2 440.487 159.5 440.087L159.8 434.089C160 430.79 161.1 424.692 162.1 420.593C163.2 416.494 165.1 410.895 166.3 408.096Z" fill="#232323"/>
<path d="M574.6 465.98C576.7 462.981 579.8 459.982 582.3 458.682C585.5 456.983 587.7 456.583 591.5 456.883C594.3 457.083 598.3 458.182 600.4 459.182C602.6 460.282 605.7 462.881 607.2 465.08C608.8 467.28 610.5 470.779 611 472.878C611.6 474.878 611.7 478.277 611.4 480.376C611 482.376 610.1 485.275 609.4 486.874C608.6 488.374 607 490.473 605.8 491.673C604.5 492.873 602.6 494.372 601.5 495.172C600.4 495.972 597.9 496.972 596 497.471C594 497.971 590.4 497.971 587.5 497.371C584.1 496.772 581.1 495.272 578.1 492.773C575.5 490.673 572.8 487.174 571.7 484.575C570.3 481.276 569.9 478.877 570.4 475.577C570.8 472.778 572.3 469.179 574.6 465.98Z" fill="#232323"/>
<path d="M462.2 471.679C462.9 467.58 463.5 463.881 463.7 463.481C463.9 462.981 465.2 463.181 466.7 463.681C468.3 464.281 470.9 465.78 472.5 467.08C474.2 468.279 477.5 472.478 480 476.177C482.5 479.976 484.8 483.175 485.2 483.375C485.7 483.475 486 484.275 486 485.075C486 485.875 486.4 486.674 486.8 486.874C487.3 486.974 493.9 496.772 501.5 508.568C509.1 520.365 516.1 531.462 517.2 533.062C518.2 534.661 519.9 537.86 521 540.06C522.2 542.459 523.2 547.258 523.6 552.056C523.9 556.455 523.8 562.553 523.2 565.553C522.6 568.552 521.1 573.75 519.9 577.049C518.6 580.448 515.9 584.947 513.6 587.446C511.2 589.946 506.6 593.145 502.5 595.044C498.7 596.944 492.5 599.043 488.8 599.743C485.1 600.443 481.9 600.843 481.5 600.543C481.2 600.243 481.9 596.644 482.9 592.545C484 588.446 485.2 583.248 485.5 581.048C485.8 578.849 486.3 576.749 486.6 576.35C486.8 575.85 487.1 571.151 487.1 565.852C487.2 558.654 486.8 554.955 485.6 552.056C484.6 549.857 483.6 547.857 483.2 547.558C482.8 547.258 480.7 544.858 478.5 542.059C476.3 539.36 473.5 535.961 472.4 534.561C471.2 533.162 466.7 528.063 462.5 523.064C458.2 518.066 453.8 512.967 452.6 511.568C451.5 510.168 449.8 508.168 449 507.269C447.6 505.669 447.9 504.969 451.6 499.771C453.9 496.672 456.9 490.673 458.3 486.574C459.8 482.476 461.5 475.777 462.2 471.679Z" fill="#232323"/>
<path d="M390.5 512.967C398.8 511.568 410.5 509.668 416.5 508.668C422.6 507.569 429.4 506.769 431.8 506.669C434.1 506.569 437 506.969 438.3 507.469C439.5 507.968 442.1 509.868 444 511.667C445.9 513.567 451.6 519.765 456.5 525.564C461.5 531.362 465.7 536.261 466 536.561C466.3 536.861 469 539.96 472.1 543.559C475.2 547.158 478.5 551.656 479.6 553.556C480.8 556.055 481.4 559.154 481.4 564.053C481.4 567.952 480.6 575.05 479.6 580.049C478.7 585.047 477.6 589.746 477.3 590.546C476.9 591.345 475.9 594.245 475.1 596.944C473.6 601.543 473.2 601.943 469 603.042C466.5 603.742 462.5 604.542 460 604.842C457.5 605.242 447.9 606.841 438.5 608.441C429.2 610.04 414.8 612.54 406.5 614.039C398.3 615.439 390.4 616.838 389 617.038C387.6 617.338 379.9 618.638 371.8 620.037C363.6 621.437 356.6 622.337 356 622.037C355.5 621.737 352.5 617.638 349.3 612.839C346.2 607.941 342 600.943 340 597.044C337.9 593.145 335.9 588.646 335.5 587.047C335.1 585.447 334.6 582.948 334.4 581.548C334.2 580.148 335.7 574.35 337.6 568.552C339.6 562.753 343.7 551.756 346.7 544.059C349.7 536.361 353.2 528.263 354.5 526.063C355.7 523.864 358 521.165 359.6 520.165C361.2 519.065 365.4 517.566 369 516.866C372.6 516.066 382.3 514.367 390.5 512.967Z" fill="#232323"/>
<path d="M196.3 524.464C196.7 522.564 197.1 519.765 197.1 518.266C197.2 516.666 197.7 515.566 198.2 515.766C198.8 515.966 200.2 518.466 201.4 521.265C203 525.464 204 526.563 205.8 526.563C207 526.563 208.5 526.763 209 527.063C209.6 527.363 211.4 527.563 213.2 527.563C215.8 527.563 216.2 527.763 215.1 528.863C214.5 529.463 212 530.762 209.7 531.662C205.516 533.255 205.5 533.361 204.512 539.884L204.5 539.96C204 543.559 203.2 546.558 202.8 546.558C202.3 546.558 201.4 544.658 200.8 542.459C200.1 540.16 198.7 537.46 197.8 536.461C196.5 535.061 194.6 534.561 191 534.561C188.3 534.561 185.8 534.261 185.6 533.861C185.3 533.361 187.5 531.862 190.3 530.462C194.6 528.363 195.6 527.263 196.3 524.464Z" fill="#232323"/>
<path d="M645.9 527.963C645.8 527.363 646.8 525.664 648 524.164C649.2 522.764 650.3 521.565 650.6 521.565C650.8 521.565 653.1 522.664 655.8 523.964C658.4 525.264 661.2 527.063 662 527.963C663.3 529.463 663.3 530.062 660 536.561L653 532.862C649.2 530.762 646 528.563 645.9 527.963Z" fill="#232323"/>
<path d="M552.9 541.359C553.5 539.16 555.4 536.561 557.3 535.061C559 533.661 561.7 532.562 563.3 532.562C564.8 532.562 567.5 533.162 569.3 533.861C571 534.561 573.3 536.261 574.3 537.66C575.3 539.16 576 541.859 576 544.858C576 548.757 575.5 550.157 572.8 553.056C569.9 556.055 568.9 556.455 564.3 556.555C560.1 556.555 558.4 556.055 556 554.056C554.3 552.656 552.7 550.157 552.4 548.357C552.1 546.558 552.3 543.359 552.9 541.359Z" fill="#232323"/>
<path d="M611.5 604.642L613.9 602.142C615.2 600.743 616.9 599.543 617.7 599.543C618.4 599.543 621 601.443 623.5 603.842C626 606.141 628.1 608.741 628.1 609.54C628.1 610.34 627 612.04 623.5 615.339L611.5 604.642Z" fill="#232323"/>
<path d="M571.5 616.339L574.3 613.939C575.9 612.64 577.5 611.54 578.1 611.54C578.6 611.54 581 613.839 583.5 616.538C586 619.338 588 621.837 588 622.337C588.1 622.737 587.2 624.236 586 625.836C584.9 627.335 583.6 628.535 583 628.535C582.5 628.535 579.6 625.736 571.5 616.339Z" fill="#232323"/>
<path d="M218.3 666.725C218.9 665.725 221.9 661.926 224.9 658.227C227.9 654.528 230.4 651.729 230.5 651.929C230.6 652.229 229.3 656.827 227.7 662.226C226.1 667.624 224.7 672.123 224.6 672.323C224.6 672.423 222.8 671.723 220.8 670.523C217.5 668.724 217.2 668.324 218.3 666.725Z" fill="#232323"/>
</svg>
